<svg width="208" height="58" viewBox="0 0 208 58" fill="none" xmlns="http://www.w3.org/2000/svg">
<g clip-path="url(#clip0_3_954)">
<g clip-path="url(#clip1_3_954)">
<g clip-path="url(#clip2_3_954)">
<g clip-path="url(#clip3_3_954)">
<g clip-path="url(#clip4_3_954)">
<g clip-path="url(#clip5_3_954)">
<path d="M88.5399 36.5201H82.5587V21.7874H88.5399C90.1041 21.7874 91.4897 22.0778 92.6967 22.6587C93.9068 23.2424 94.8552 24.0829 95.5419 25.1801C96.2316 26.2773 96.5764 27.6019 96.5764 29.1537C96.5764 30.7028 96.2316 32.0273 95.5419 33.1273C94.8552 34.2246 93.9068 35.0636 92.6967 35.6445C91.4897 36.2282 90.1041 36.5201 88.5399 36.5201ZM84.7526 23.5974V34.71H88.5399C89.7716 34.71 90.8046 34.4771 91.6391 34.0113C92.4766 33.5427 93.1078 32.8916 93.5327 32.0582C93.9607 31.2219 94.1747 30.2538 94.1747 29.1537C94.1747 28.0509 93.9607 27.0827 93.5327 26.2493C93.1078 25.413 92.4766 24.762 91.6391 24.2962C90.8046 23.8303 89.7716 23.5974 88.5399 23.5974H84.7526ZM107.8 30.7322V32.5422H100.872V30.7322H107.8ZM108.978 36.5201L104.013 23.7447H104.659L99.6941 36.5201H97.3847L103.181 21.7874H105.491L111.287 36.5201H108.978ZM122.025 30.7322V32.5422H115.097V30.7322H122.025ZM123.203 36.5201L118.238 23.7447H118.885L113.915 36.5201H111.606L117.407 21.7874H119.716L125.513 36.5201H123.203ZM134.468 36.8147C132.898 36.8147 131.5 36.5004 130.274 35.8718C129.046 35.2432 128.079 34.3565 127.374 33.2115C126.669 32.0638 126.316 30.7112 126.316 29.1537C126.316 27.5963 126.673 26.2437 127.388 25.0959C128.099 23.9482 129.077 23.0614 130.321 22.4356C131.561 21.807 132.975 21.4927 134.561 21.4927C135.386 21.4927 136.171 21.5727 136.916 21.7327C137.664 21.8954 138.319 22.1031 138.879 22.3556L138.648 24.2078C138.072 23.9552 137.438 23.7405 136.745 23.5637C136.052 23.3897 135.316 23.3028 134.537 23.3028C133.269 23.3028 132.203 23.5637 131.341 24.0857C130.479 24.6076 129.826 25.3106 129.383 26.1946C128.94 27.0785 128.718 28.0649 128.718 29.1537C128.718 30.2397 128.937 31.2247 129.374 32.1087C129.808 32.9926 130.455 33.697 131.314 34.2218C132.17 34.7437 133.229 35.0047 134.491 35.0047C135.292 35.0047 136.034 34.9261 136.717 34.769C137.398 34.609 138.042 34.3929 138.648 34.1207L138.879 35.9728C138.303 36.2114 137.654 36.412 136.93 36.5748C136.206 36.7347 135.386 36.8147 134.468 36.8147ZM151.303 36.8147C150.632 36.8147 149.962 36.7698 149.294 36.68C148.623 36.5874 148.003 36.4695 147.433 36.3264C146.863 36.1805 146.391 36.0276 146.015 35.8676L146.315 33.7419C146.731 33.9243 147.233 34.1137 147.821 34.3102C148.409 34.5066 149.046 34.6708 149.733 34.8026C150.417 34.9373 151.109 35.0047 151.811 35.0047C152.849 35.0047 153.674 34.8307 154.287 34.4827C154.9 34.1348 155.206 33.5932 155.206 32.8579C155.206 32.3023 155.052 31.8477 154.744 31.4941C154.436 31.1405 153.973 30.8375 153.354 30.5849C152.732 30.3323 151.956 30.0798 151.026 29.8272C150.139 29.5887 149.323 29.3067 148.578 28.9811C147.83 28.6556 147.231 28.2164 146.782 27.6636C146.332 27.1136 146.107 26.3826 146.107 25.4706C146.107 24.6904 146.329 24.0015 146.772 23.4038C147.213 22.8032 147.862 22.3346 148.721 21.9979C149.581 21.6611 150.634 21.4927 151.881 21.4927C152.943 21.4927 153.919 21.598 154.809 21.8084C155.696 22.0189 156.429 22.2504 157.007 22.503L156.776 24.6287C155.899 24.1516 155.061 23.8107 154.264 23.6058C153.466 23.4038 152.641 23.3028 151.788 23.3028C150.84 23.3028 150.056 23.4641 149.437 23.7868C148.818 24.1095 148.509 24.6357 148.509 25.3653C148.509 25.8564 148.648 26.2577 148.925 26.5692C149.202 26.8807 149.613 27.1473 150.158 27.369C150.706 27.5907 151.388 27.8138 152.204 28.0383C153.328 28.3469 154.293 28.6991 155.1 29.0948C155.91 29.4905 156.53 29.9788 156.961 30.5596C157.392 31.1377 157.608 31.8547 157.608 32.7106C157.608 33.342 157.477 33.9103 157.215 34.4154C156.954 34.9205 156.561 35.3513 156.037 35.7077C155.514 36.0669 154.858 36.3419 154.07 36.5327C153.279 36.7207 152.356 36.8147 151.303 36.8147ZM168.901 30.7322V32.5422H161.973V30.7322H168.901ZM170.078 36.5201L165.113 23.7447H165.76L160.795 36.5201H158.485L164.282 21.7874H166.591L172.388 36.5201H170.078ZM183.121 30.7322V32.5422H176.193V30.7322H183.121ZM184.299 36.5201L179.334 23.7447H179.981L175.016 36.5201H172.706L178.503 21.7874H180.812L186.609 36.5201H184.299ZM194.714 36.5201H188.618V21.7874H193.721C195.169 21.7874 196.305 22.0834 197.13 22.6756C197.952 23.2677 198.363 24.1713 198.363 25.3864C198.363 26.2058 198.168 26.9284 197.777 27.5542C197.382 28.18 196.793 28.5869 196.008 28.7749L196.331 28.4381C197.455 28.6065 198.325 29.0148 198.941 29.6631C199.556 30.3113 199.864 31.1938 199.864 32.3107C199.864 33.6016 199.409 34.6259 198.497 35.3835C197.586 36.1412 196.325 36.5201 194.714 36.5201ZM190.812 29.722V34.71H194.53C195.423 34.71 196.135 34.5066 196.668 34.0997C197.198 33.6928 197.463 33.0754 197.463 32.2476C197.463 31.3215 197.192 30.6691 196.65 30.2902C196.108 29.9114 195.401 29.722 194.53 29.722H190.812ZM190.812 23.5764V27.912H193.444C194.229 27.912 194.868 27.7674 195.361 27.4784C195.854 27.1922 196.1 26.6141 196.1 25.7442C196.1 24.8798 195.854 24.3032 195.361 24.0141C194.868 23.7223 194.229 23.5764 193.444 23.5764H190.812Z" fill="#BCDD33"/>
</g>
</g>
</g>
</g>
<g clip-path="url(#clip6_3_954)">
<g clip-path="url(#clip7_3_954)">
<g clip-path="url(#clip8_3_954)">
<g clip-path="url(#clip9_3_954)">
<path d="M49.2703 18.3874C50.8607 20.0384 51.8048 22.3147 51.5724 23.9185C51.4359 24.8533 51.1075 25.8317 50.6353 26.8303H40.331L37.1729 34.1367L34.369 22.2239L34.2288 21.6321L32.4284 21.928L28.8091 27.7281L22.493 27.6978C21.799 26.4067 21.3308 25.1357 21.1869 23.9387C20.9652 22.0759 21.9395 19.6248 23.5592 17.984C24.4077 17.1198 25.8244 16.0876 27.7429 16.0876C30.2258 16.0876 32.9338 17.8327 35.5754 21.1345L36.3501 22.1028L37.0843 21.111C39.4787 17.8831 42.065 16.1784 44.5553 16.1784C46.2265 16.1784 47.8978 16.9618 49.2703 18.3874Z" fill="#BCDD33"/>
<path d="M41.7034 28.5115H49.7204C46.1196 34.4057 38.5269 40.5454 36.376 42.2199C34.3395 40.6597 27.4736 35.1892 23.692 29.6581L29.7389 29.6345L33.0113 24.3994L36.1473 37.7412L36.5346 39.7082L41.7034 28.5115Z" fill="#BCDD33"/>
</g>
</g>
<path d="M11.2701 21.4989L10.668 23.0795L5.98719 21.5984L6.58931 20.0178C6.74562 19.6072 6.97787 19.2718 7.28575 19.012C7.59155 18.7514 7.95341 18.5851 8.37074 18.5132C8.78985 18.4421 9.24574 18.4843 9.73811 18.6403C10.2308 18.796 10.6164 19.0201 10.8949 19.3123C11.1737 19.6042 11.3454 19.9392 11.4104 20.3171C11.4733 20.6944 11.4264 21.0883 11.2701 21.4989ZM6.78418 21.201L10.3126 22.3175L10.6938 21.3167C10.8172 20.9926 10.8477 20.6974 10.7851 20.4309C10.7208 20.1638 10.5769 19.9319 10.3536 19.7351C10.132 19.5388 9.84637 19.3853 9.49667 19.2745C9.14667 19.1639 8.81714 19.1228 8.50807 19.1512C8.20078 19.1801 7.93117 19.2812 7.69892 19.4542C7.46668 19.6275 7.28901 19.8762 7.16532 20.2003L6.78418 21.201ZM14.7754 12.5543L15.2506 12.9025L13.9209 14.4103L13.4454 14.0619L14.7754 12.5543ZM16.5204 13.4088L12.2181 12.0364L12.3429 11.895L14.7383 15.4291L14.2937 15.9333L11.5459 11.8406L11.9888 11.3389L16.9629 12.9071L16.5204 13.4088ZM21.7659 7.24115L22.0972 7.70772L20.3152 8.75873L19.9839 8.29188L21.7659 7.24115ZM23.1282 8.55193L19.5164 6.01768L19.6837 5.91901L20.7399 9.96003L20.1443 10.3112L18.946 5.6395L19.5393 5.28971L23.7214 8.20214L23.1282 8.55193ZM30.2362 6.10148C29.772 6.21636 29.3303 6.22583 28.9118 6.12986C28.493 6.03363 28.129 5.84143 27.82 5.553C27.5094 5.26673 27.2858 4.89342 27.1485 4.43306C27.0114 3.97271 26.9981 3.54641 27.1087 3.15418C27.2173 2.76221 27.4273 2.4281 27.739 2.15129C28.0534 1.87583 28.4446 1.68012 28.9127 1.56442C29.1556 1.50414 29.3947 1.47062 29.6305 1.46386C29.8663 1.45684 30.0778 1.47008 30.2649 1.5036L30.361 2.06722C30.1679 2.03505 29.9615 2.01775 29.7417 2.01505C29.5204 2.01478 29.295 2.04289 29.066 2.09966C28.689 2.19292 28.3963 2.34808 28.1878 2.56488C27.9796 2.78384 27.8493 3.03929 27.7966 3.33178C27.7426 3.62643 27.7636 3.93486 27.8594 4.25708C27.9549 4.57768 28.1059 4.85314 28.3121 5.08345C28.5203 5.31322 28.7736 5.47379 29.072 5.56543C29.3724 5.65653 29.7091 5.65572 30.0822 5.56354C30.3192 5.50488 30.5319 5.42757 30.7202 5.33161C30.9065 5.23591 31.0779 5.12508 31.2342 4.99911L31.4644 5.52948C31.3143 5.64274 31.1399 5.74952 30.9403 5.85008C30.741 5.95091 30.5061 6.03471 30.2362 6.10148ZM43.6957 6.38315C43.4978 6.33287 43.3039 6.26962 43.114 6.19312C42.9248 6.11472 42.7534 6.03336 42.5994 5.94875C42.4437 5.8636 42.3176 5.78304 42.2218 5.70735L42.4998 5.10373C42.6056 5.1878 42.737 5.28079 42.8939 5.38351C43.0506 5.48596 43.2241 5.58219 43.4139 5.67194C43.6037 5.76196 43.8025 5.83332 44.0101 5.88576C44.3165 5.96334 44.5754 5.97362 44.7872 5.91658C44.9987 5.85981 45.1375 5.72276 45.2039 5.50515C45.2535 5.34269 45.2487 5.19672 45.19 5.0675C45.1325 4.94072 45.023 4.81692 44.8614 4.69608C44.7015 4.57552 44.4953 4.44333 44.2423 4.29952C44.0021 4.16247 43.7873 4.01785 43.5978 3.86512C43.4056 3.71374 43.2674 3.53965 43.1831 3.34313C43.1007 3.14715 43.1007 2.91494 43.1825 2.64624C43.2528 2.41458 43.3801 2.22698 43.564 2.08317C43.7497 1.93963 43.9837 1.85042 44.2661 1.81528C44.5502 1.78041 44.8765 1.8096 45.2452 1.90286C45.5593 1.98234 45.8381 2.08614 46.081 2.21427C46.3239 2.3424 46.5194 2.4654 46.6674 2.58272L46.4094 3.19418C46.1922 2.98712 45.9757 2.82357 45.7595 2.70409C45.543 2.58461 45.3078 2.4927 45.0536 2.42864C44.7745 2.35781 44.5292 2.34727 44.3177 2.39647C44.1062 2.44594 43.9677 2.57839 43.9021 2.79411C43.8579 2.939 43.8624 3.06767 43.9161 3.18013C43.9695 3.29285 44.0667 3.40206 44.2076 3.5083C44.3488 3.61426 44.5303 3.73158 44.7522 3.86025C45.0565 4.03434 45.3101 4.20978 45.5133 4.38684C45.7162 4.5639 45.8547 4.7542 45.9286 4.95748C46.0042 5.1613 46.0036 5.38972 45.9268 5.64247C45.8701 5.82791 45.7803 5.98605 45.6569 6.11662C45.5341 6.24556 45.3798 6.34369 45.1944 6.41099C45.0067 6.47776 44.7884 6.50912 44.5389 6.50507C44.2889 6.50263 44.0077 6.46209 43.6957 6.38315ZM53.3316 8.64844L52.9902 9.10879L51.2313 8.02562L51.573 7.56499L53.3316 8.64844ZM52.5412 10.3039L53.6864 6.28286L53.8516 6.3845L50.1846 8.85226L49.5967 8.49003L53.845 5.65626L54.4303 6.01687L53.1267 10.6645L52.5412 10.3039ZM59.7191 14.5587L59.2362 14.8982L57.9397 13.3663L58.4226 13.0268L59.7191 14.5587ZM58.3983 15.9041L60.8711 12.4145L60.9927 12.5583L56.6611 13.8516L56.2277 13.3393L61.2374 11.865L61.669 12.3748L58.8296 16.4139L58.3983 15.9041ZM61.6859 21.9028L61.0411 20.3041L65.6916 18.746L66.2314 20.0838C66.3848 20.4644 66.4115 20.7937 66.3112 21.0715C66.2119 21.3511 65.9701 21.5551 65.5866 21.6838C65.3277 21.7703 65.0782 21.7955 64.8383 21.7584C64.6001 21.7211 64.4091 21.6092 64.2652 21.4227L64.4073 21.4719C64.4734 21.7841 64.4358 22.0555 64.2952 22.2864C64.1564 22.5167 63.9114 22.6905 63.5599 22.8084C63.1517 22.9451 62.7807 22.9335 62.4458 22.774C62.1095 22.6151 61.8562 22.3247 61.6859 21.9028ZM63.4187 20.1614L61.8458 20.6882L62.2388 21.6619C62.3331 21.896 62.4728 22.0615 62.6573 22.158C62.8403 22.255 63.0631 22.2593 63.3256 22.1715C63.6165 22.0739 63.7939 21.9344 63.858 21.7528C63.9194 21.57 63.9039 21.364 63.8114 21.1351L63.4187 20.1614ZM65.3573 19.5118L63.9911 19.9694L64.2694 20.659C64.3527 20.8658 64.4657 21.0183 64.6087 21.1172C64.7514 21.2159 64.9596 21.2194 65.2336 21.1275C65.5056 21.0364 65.662 20.9107 65.7026 20.7507C65.7411 20.5912 65.7186 20.4082 65.6353 20.2014L65.3573 19.5118ZM7.981 39.1587L7.36553 37.5503L12.135 36.0338L12.7508 37.6419C12.9118 38.0631 12.9602 38.4653 12.8961 38.8489C12.8326 39.2344 12.6585 39.5763 12.3741 39.8747C12.0896 40.1732 11.6957 40.4024 11.1921 40.5624C10.6902 40.7219 10.226 40.7657 9.7998 40.6933C9.37358 40.6208 9.00371 40.4519 8.69108 40.1862C8.37875 39.9221 8.14235 39.5796 7.981 39.1587ZM11.7734 36.8101L8.17854 37.9533L8.56828 38.9719C8.69494 39.3028 8.87646 39.5569 9.11286 39.7342C9.34925 39.9118 9.6251 40.0142 9.94069 40.0423C10.2545 40.0707 10.5888 40.0286 10.9444 39.9156C11.3015 39.802 11.5934 39.645 11.8194 39.4449C12.0475 39.2441 12.1934 39.0073 12.2575 38.7343C12.3213 38.4615 12.2901 38.1596 12.1635 37.8287L11.7734 36.8101ZM15.161 46.8214L14.6793 47.1756L13.32 45.6399L13.8017 45.2858L15.161 46.8214ZM13.8485 48.2179L16.2837 44.6097L16.4109 44.7532L12.0264 46.1597L11.5732 45.648L16.6423 44.042L17.0955 44.554L14.3017 48.7296L13.8485 48.2179ZM22.0607 52.0316L21.7253 52.5057L19.9059 51.4366L20.241 50.9625L22.0607 52.0316ZM21.2955 53.733L22.365 49.6109L22.535 49.7106L18.8568 52.3003L18.2502 51.9437L22.5098 48.9691L23.1164 49.3254L21.902 54.0895L21.2955 53.733ZM29.3196 56.7341C28.8454 56.6173 28.4506 56.4194 28.135 56.1402C27.8221 55.8599 27.6109 55.5201 27.502 55.1208C27.3908 54.7226 27.4044 54.289 27.5435 53.8198C27.6832 53.3486 27.9122 52.9669 28.2302 52.6747C28.547 52.3803 28.921 52.1843 29.352 52.0873C29.7829 51.9919 30.2371 52.0029 30.7152 52.1208C30.964 52.1819 31.1939 52.2643 31.4051 52.3676C31.616 52.4728 31.7945 52.5841 31.9411 52.702L31.7056 53.2426C31.5552 53.1237 31.3831 53.012 31.1889 52.9072C30.9967 52.8028 30.7831 52.7217 30.5479 52.6639C30.165 52.5695 29.82 52.5693 29.513 52.6628C29.206 52.7563 28.9456 52.9201 28.7324 53.1548C28.5215 53.3878 28.3672 53.6689 28.2693 53.9984C28.1724 54.3261 28.1495 54.6388 28.2008 54.9365C28.2539 55.2365 28.3862 55.4971 28.598 55.7182C28.8095 55.9396 29.1058 56.0972 29.4869 56.191C29.7296 56.2508 29.9603 56.2818 30.1786 56.2843C30.3987 56.2872 30.6123 56.2702 30.819 56.2337L30.7235 56.809C30.5295 56.8373 30.3154 56.849 30.081 56.8446C29.8494 56.839 29.5955 56.8019 29.3196 56.7341ZM44.6561 56.4432C44.4544 56.494 44.2486 56.5316 44.0389 56.5559C43.8283 56.5784 43.6313 56.59 43.4477 56.5905C43.2617 56.59 43.1051 56.5797 42.9782 56.5605L42.8744 55.8985C43.0153 55.922 43.1837 55.9404 43.3801 55.9539C43.5747 55.9696 43.782 55.9707 44.0012 55.9572C44.2192 55.9461 44.4339 55.9139 44.6454 55.8607C44.9578 55.782 45.1903 55.6671 45.343 55.5166C45.4958 55.3657 45.5382 55.1789 45.4706 54.9562C45.4202 54.7899 45.3321 54.6645 45.2063 54.5802C45.0829 54.4972 44.9156 54.4412 44.7045 54.4126C44.495 54.3834 44.2391 54.3661 43.9368 54.3604C43.647 54.3553 43.3748 54.3326 43.1203 54.292C42.8652 54.2498 42.6445 54.1625 42.4582 54.0306C42.2726 53.9003 42.1379 53.6973 42.0542 53.4216C41.9834 53.188 41.9872 52.9634 42.0661 52.7477C42.145 52.5336 42.2984 52.3435 42.5259 52.1778C42.7534 52.0119 43.0553 51.8816 43.4317 51.7867C43.7517 51.7061 44.0552 51.6631 44.3417 51.6575C44.6288 51.6537 44.8711 51.6677 45.0687 51.6999L45.1936 52.3592C44.8839 52.2814 44.6006 52.2422 44.3438 52.2422C44.0842 52.2411 43.8256 52.2727 43.5675 52.3379C43.2822 52.4098 43.0612 52.5176 42.9046 52.662C42.7477 52.8061 42.7026 52.9877 42.7694 53.2069C42.8142 53.3556 42.8928 53.4662 43.0046 53.5389C43.1164 53.6116 43.265 53.6608 43.4504 53.6865C43.6358 53.7122 43.8606 53.7276 44.1255 53.7333C44.493 53.7397 44.8163 53.7725 45.0951 53.8317C45.3757 53.8884 45.6073 53.9882 45.7903 54.1304C45.9733 54.2728 46.1038 54.472 46.1816 54.7286C46.2397 54.9194 46.2519 55.1011 46.2183 55.273C46.1851 55.4452 46.1062 55.605 45.9817 55.7523C45.8571 55.8999 45.6841 56.0321 45.4629 56.1486C45.2431 56.2648 44.9744 56.3629 44.6561 56.4432ZM53.0819 50.6016L53.428 51.0695L51.6329 52.1724L51.2868 51.7045L53.0819 50.6016ZM54.4961 51.9132L50.7603 49.393L50.9282 49.2897L52.0903 53.3913L51.4918 53.7589L50.1704 49.0186L50.7686 48.651L55.0947 51.5456L54.4961 51.9132ZM59.3685 44.7827L59.8582 45.1279L58.5338 46.6884L58.0441 46.3432L59.3685 44.7827ZM61.1633 45.6231L56.748 44.2991L56.8719 44.1534L59.3878 47.7151L58.9464 48.2352L56.0589 44.1126L56.5006 43.5925L61.6046 45.103L61.1633 45.6231ZM64.9578 38.8043L64.297 40.433L59.5589 38.8364L60.1118 37.4735C60.269 37.0864 60.4876 36.8147 60.7676 36.6587C61.0476 36.5028 61.3831 36.4906 61.7737 36.6225C62.0383 36.7115 62.2492 36.8423 62.4067 37.0145C62.5642 37.187 62.6306 37.3883 62.6057 37.6187L62.5327 37.4973C62.7098 37.2145 62.9355 37.0256 63.2102 36.9304C63.486 36.8374 63.8034 36.8515 64.162 36.9723C64.5775 37.1123 64.8578 37.3448 65.0029 37.6695C65.1473 37.9958 65.1322 38.3742 64.9578 38.8043ZM62.3482 39.1103L63.9511 39.6504L64.3545 38.6567C64.4515 38.4175 64.4634 38.2055 64.3904 38.0206C64.318 37.8338 64.1486 37.6957 63.8826 37.6059C63.5842 37.5054 63.3451 37.5078 63.1648 37.6135C62.9836 37.7165 62.8456 37.8844 62.7513 38.1166L62.3482 39.1103ZM60.3716 38.4442L61.7648 38.9138L62.0507 38.209C62.1359 37.9993 62.1587 37.8133 62.1192 37.6514C62.0825 37.4884 61.9235 37.3594 61.642 37.2645C61.3644 37.171 61.1526 37.1748 61.0064 37.2762C60.859 37.3751 60.7427 37.5297 60.6573 37.7395L60.3716 38.4442ZM5.96851 29.7853C5.96851 28.8141 6.83253 28.0266 7.89824 28.0266C8.96396 28.0266 9.82798 28.8141 9.82798 29.7853C9.82798 30.7566 8.96396 31.544 7.89824 31.544C6.83253 31.544 5.96851 30.7566 5.96851 29.7853ZM62.9352 29.7853C62.9352 28.8141 63.7989 28.0266 64.8647 28.0266C65.9307 28.0266 66.7944 28.8141 66.7944 29.7853C66.7944 30.7566 65.9307 31.544 64.8647 31.544C63.7989 31.544 62.9352 30.7566 62.9352 29.7853Z" fill="#BCDD33"/>
</g>
</g>
</g>
</g>
<defs>
<clipPath id="clip0_3_954">
<rect width="199.738" height="55.4349" fill="white" transform="translate(0.131226 1.43628)"/>
</clipPath>
<clipPath id="clip1_3_954">
<rect width="199.738" height="55.4349" fill="white" transform="translate(0.131226 1.43628)"/>
</clipPath>
<clipPath id="clip2_3_954">
<rect width="117.315" height="15.322" fill="white" transform="translate(82.5541 21.4927)"/>
</clipPath>
<clipPath id="clip3_3_954">
<rect width="117.315" height="15.322" fill="white" transform="translate(82.5541 21.4927)"/>
</clipPath>
<clipPath id="clip4_3_954">
<rect width="117.315" height="15.322" fill="white" transform="translate(82.5541 21.4927)"/>
</clipPath>
<clipPath id="clip5_3_954">
<rect width="117.315" height="15.322" fill="white" transform="translate(82.5541 21.4927)"/>
</clipPath>
<clipPath id="clip6_3_954">
<rect width="72.5005" height="55.4349" fill="white" transform="translate(0.131226 1.43628)"/>
</clipPath>
<clipPath id="clip7_3_954">
<rect width="72.5005" height="55.4349" fill="white" transform="translate(0.131226 1.43628)"/>
</clipPath>
<clipPath id="clip8_3_954">
<rect width="30.4517" height="26.1323" fill="white" transform="translate(21.1556 16.0876)"/>
</clipPath>
<clipPath id="clip9_3_954">
<rect width="30.4517" height="26.1323" fill="white" transform="translate(21.1556 16.0876)"/>
</clipPath>
</defs>
</svg>
