<svg width="26" height="31" viewBox="0 0 26 31" fill="none" xmlns="http://www.w3.org/2000/svg">
<g clip-path="url(#clip0_20_278)">
<path fill-rule="evenodd" clip-rule="evenodd" d="M4.28664 0.859375H21.4332C23.8006 0.859375 25.7198 2.77815 25.7198 5.14508V26.5737C25.7198 28.9406 23.8006 30.8594 21.4332 30.8594H4.28664C1.91919 30.8594 0 28.9406 0 26.5737V5.14508C0 2.77815 1.91919 0.859375 4.28664 0.859375ZM4.28664 3.00223C3.10291 3.00223 2.14332 3.96162 2.14332 5.14508V26.5737C2.14332 27.7572 3.10292 28.7165 4.28664 28.7165H21.4332C22.6169 28.7165 23.5765 27.7572 23.5765 26.5737V5.14508C23.5765 3.96162 22.6169 3.00223 21.4332 3.00223H4.28664Z" fill="#1BB4A4"/>
<path fill-rule="evenodd" clip-rule="evenodd" d="M5.35938 21.2167C5.35938 20.6249 5.83918 20.1453 6.43104 20.1453H12.861C13.4528 20.1453 13.9326 20.6249 13.9326 21.2167C13.9326 21.8084 13.4528 22.2881 12.861 22.2881H6.43104C5.83918 22.2881 5.35938 21.8084 5.35938 21.2167Z" fill="#1BB4A4"/>
<path fill-rule="evenodd" clip-rule="evenodd" d="M5.35938 16.9309C5.35938 16.3391 5.83918 15.8594 6.43104 15.8594H19.2909C19.8828 15.8594 20.3626 16.3391 20.3626 16.9309C20.3626 17.5226 19.8828 18.0023 19.2909 18.0023H6.43104C5.83918 18.0023 5.35938 17.5226 5.35938 16.9309Z" fill="#1BB4A4"/>
<path fill-rule="evenodd" clip-rule="evenodd" d="M5.35938 12.6452C5.35938 12.0534 5.83918 11.5737 6.43104 11.5737H19.2909C19.8828 11.5737 20.3626 12.0534 20.3626 12.6452C20.3626 13.2369 19.8828 13.7166 19.2909 13.7166H6.43104C5.83918 13.7166 5.35938 13.2369 5.35938 12.6452Z" fill="#1BB4A4"/>
<path fill-rule="evenodd" clip-rule="evenodd" d="M5.35938 8.35952C5.35938 7.76779 5.83918 7.28809 6.43104 7.28809H19.2909C19.8828 7.28809 20.3626 7.76779 20.3626 8.35952C20.3626 8.95125 19.8828 9.43095 19.2909 9.43095H6.43104C5.83918 9.43095 5.35938 8.95125 5.35938 8.35952Z" fill="#1BB4A4"/>
</g>
<defs>
<clipPath id="clip0_20_278">
<rect width="26" height="30" fill="white" transform="translate(0 0.859375)"/>
</clipPath>
</defs>
</svg>
