<svg width="1000" height="181" viewBox="0 0 1000 181" fill="none" xmlns="http://www.w3.org/2000/svg">
<g clip-path="url(#clip0_1_27)">
<g clip-path="url(#clip1_1_27)">
<g clip-path="url(#clip2_1_27)">
<g clip-path="url(#clip3_1_27)">
<g clip-path="url(#clip4_1_27)">
<g clip-path="url(#clip5_1_27)">
<g clip-path="url(#clip6_1_27)">
<path d="M2.24725 150.954L2.74464 34.0343C26.7077 34.2554 45.2216 40.3898 58.2863 52.4376C71.3289 64.4634 77.8502 82.0819 77.8502 105.293C77.8502 112.743 75.9159 119.541 72.0473 125.686C68.1567 131.832 63.1607 136.739 57.0594 140.409C50.9581 144.079 44.3705 146.919 37.2965 148.931C30.2447 150.92 23.2591 151.915 16.3399 151.915C12.0292 151.915 7.33166 151.595 2.24725 150.954ZM14.3835 141.072H17.1357C23.3033 141.072 29.2499 140.343 34.9754 138.884C40.6787 137.425 45.9621 135.236 50.8255 132.318C55.6888 129.4 59.5795 125.377 62.4975 120.248C65.3934 115.12 66.8413 109.217 66.8413 102.541C66.8413 93.4777 64.1223 84.2705 58.6842 74.9196C53.224 65.5908 46.6363 58.0415 38.9213 52.2718C31.2063 46.48 24.0549 43.5841 17.4673 43.5841C16.0746 43.5841 14.7262 43.7499 13.4219 44.0815C13.4219 50.5586 13.7424 82.8888 14.3835 141.072ZM96.8172 81.9825L93.5677 73.7258C96.3751 70.9184 99.9342 68.6746 104.245 66.9945C108.556 65.3145 112.822 64.4744 117.044 64.4744C135.282 64.4744 144.401 80.2361 144.401 111.759C144.401 116.07 144.158 122.437 143.671 130.859C143.185 139.282 142.942 145.604 142.942 149.826C142.08 153.164 140.411 154.833 137.935 154.833C135.989 154.833 134.21 153.861 132.596 151.915C130.96 149.97 130.142 147.815 130.142 145.449C130.142 144.698 130.197 144.156 130.308 143.824C123.632 150.301 116.514 153.54 108.954 153.54C103.228 153.54 98.232 151.462 93.9656 147.306C89.6991 143.15 87.5658 138.099 87.5658 132.152C87.5658 122.116 91.4786 113.053 99.3042 104.962C107.13 96.8709 116.005 92.8255 125.931 92.8255C126.373 92.8255 126.804 92.8476 127.224 92.8918C127.666 92.9582 128.186 93.0466 128.783 93.1571C129.38 93.2455 129.833 93.2898 130.142 93.2898C129.28 80.6672 124.262 74.3559 115.088 74.3559C109.694 74.3559 103.604 76.8981 96.8172 81.9825ZM130.64 132.65C130.861 125.089 130.971 119.364 130.971 115.473C130.971 112.246 130.861 107.714 130.64 101.878H129.346C121.676 101.989 114.69 104.851 108.39 110.466C102.067 116.081 98.9063 122.879 98.9063 130.859C98.9063 134.308 99.9563 137.06 102.056 139.116C104.156 141.172 106.721 142.2 109.749 142.2C114.502 142.2 121.466 139.016 130.64 132.65ZM163.335 81.9825L160.085 73.7258C162.892 70.9184 166.463 68.6746 170.795 66.9945C175.106 65.3145 179.362 64.4744 183.562 64.4744C201.821 64.4744 210.951 80.2361 210.951 111.759C210.951 116.07 210.708 122.437 210.222 130.859C209.735 139.282 209.492 145.604 209.492 149.826C208.63 153.164 206.95 154.833 204.452 154.833C202.507 154.833 200.727 153.861 199.113 151.915C197.5 149.97 196.693 147.815 196.693 145.449C196.693 144.698 196.748 144.156 196.859 143.824C190.16 150.301 183.031 153.54 175.471 153.54C169.767 153.54 164.783 151.462 160.516 147.306C156.25 143.15 154.116 138.099 154.116 132.152C154.116 122.116 158.029 113.053 165.855 104.962C173.68 96.8709 182.556 92.8255 192.481 92.8255C192.924 92.8255 193.355 92.8476 193.775 92.8918C194.217 92.9582 194.725 93.0466 195.3 93.1571C195.897 93.2455 196.361 93.2898 196.693 93.2898C195.831 80.6672 190.812 74.3559 181.638 74.3559C176.245 74.3559 170.143 76.8981 163.335 81.9825ZM197.19 132.65C197.389 125.089 197.489 119.364 197.489 115.473C197.489 112.246 197.389 107.714 197.19 101.878H195.897C188.226 101.989 181.229 104.851 174.907 110.466C168.607 116.081 165.457 122.879 165.457 130.859C165.457 134.308 166.507 137.06 168.607 139.116C170.707 141.172 173.271 142.2 176.3 142.2C181.053 142.2 188.016 139.016 197.19 132.65ZM278.596 71.6036L277.8 78.5671C273.268 77.926 269.378 77.6055 266.128 77.6055C258.7 77.6055 252.555 79.8382 247.692 84.3036C242.828 88.7912 239.501 94.0856 237.711 100.187C235.942 106.288 235.058 113.064 235.058 120.513C235.058 123.962 235.268 127.035 235.688 129.732C236.13 132.429 236.915 135.07 238.042 137.657C239.192 140.243 240.971 142.266 243.381 143.725C245.813 145.184 248.808 145.913 252.367 145.913C257.12 145.913 263.166 144.996 270.505 143.161C272.782 142.299 274.562 141.868 275.844 141.868C278.452 141.868 280.022 144.896 280.552 150.954C271.047 153.96 262.248 155.463 254.158 155.463C242.397 155.463 234.439 152.578 230.283 146.809C226.127 141.039 224.049 131.677 224.049 118.723C224.049 111.163 224.557 104.553 225.574 98.8937C226.613 93.2345 228.426 87.9401 231.012 83.0104C233.599 78.1028 237.346 74.3559 242.253 71.7694C247.161 69.183 253.185 67.8898 260.325 67.8898C268.306 67.8898 274.396 69.1278 278.596 71.6036ZM333.01 142.697L335.265 133.611C344.66 138.696 353.889 141.238 362.953 141.238C369.43 141.238 374.956 139.912 379.532 137.259C384.131 134.606 386.43 130.318 386.43 124.393C386.43 119.11 384.484 114.28 380.594 109.903C376.703 105.525 372.005 101.668 366.501 98.3299C360.996 94.9698 355.492 91.5434 349.988 88.0506C344.483 84.5357 339.786 80.214 335.895 75.0854C332.026 69.9567 330.092 64.2644 330.092 58.0084C330.092 50.3376 332.844 43.352 338.349 37.0518C343.853 30.7294 350.485 27.5682 358.244 27.5682C364.191 27.5682 370.801 28.7509 378.073 31.1163C385.368 33.5037 391.503 35.8802 396.477 38.2455L394.52 44.7447C382.207 40.5224 371.851 38.4113 363.45 38.4113C358.255 38.4113 353.823 40.0914 350.153 43.4515C346.484 46.7895 344.649 51.1002 344.649 56.3836C344.649 60.3848 345.677 63.9991 347.733 67.2266C349.789 70.4762 352.464 73.2837 355.757 75.6491C359.029 78.0365 362.699 80.3577 366.766 82.6125C370.812 84.8894 374.824 87.3211 378.803 89.9075C382.804 92.4939 386.452 95.3014 389.745 98.3299C393.039 101.358 395.714 105.161 397.77 109.737C399.804 114.335 400.821 119.486 400.821 125.189C400.821 133.302 398.234 139.912 393.061 145.018C387.889 150.147 381.146 152.711 372.834 152.711C365.694 152.711 358.112 151.716 350.087 149.727C342.04 147.737 336.348 145.394 333.01 142.697ZM414.913 81.9825L411.664 73.7258C414.471 70.9184 418.041 68.6746 422.374 66.9945C426.685 65.3145 430.94 64.4744 435.14 64.4744C453.4 64.4744 462.53 80.2361 462.53 111.759C462.53 116.07 462.287 122.437 461.8 130.859C461.314 139.282 461.071 145.604 461.071 149.826C460.209 153.164 458.529 154.833 456.031 154.833C454.085 154.833 452.306 153.861 450.692 151.915C449.078 149.97 448.271 147.815 448.271 145.449C448.271 144.698 448.327 144.156 448.437 143.824C441.739 150.301 434.61 153.54 427.05 153.54C421.324 153.54 416.339 151.462 412.095 147.306C407.828 143.15 405.695 138.099 405.695 132.152C405.695 122.116 409.608 113.053 417.433 104.962C425.259 96.8709 434.135 92.8255 444.06 92.8255C444.48 92.8255 444.911 92.8476 445.353 92.8918C445.773 92.9582 446.282 93.0466 446.879 93.1571C447.476 93.2455 447.94 93.2898 448.271 93.2898C447.409 80.6672 442.391 74.3559 433.217 74.3559C427.823 74.3559 421.722 76.8981 414.913 81.9825ZM448.736 132.65C448.957 125.089 449.067 119.364 449.067 115.473C449.067 112.246 448.957 107.714 448.736 101.878H447.442C439.794 101.989 432.808 104.851 426.486 110.466C420.164 116.081 417.002 122.879 417.002 130.859C417.002 134.308 418.063 137.06 420.186 139.116C422.286 141.172 424.85 142.2 427.879 142.2C432.609 142.2 439.562 139.016 448.736 132.65ZM481.464 81.9825L478.214 73.7258C481.022 70.9184 484.581 68.6746 488.891 66.9945C493.202 65.3145 497.469 64.4744 501.691 64.4744C519.928 64.4744 529.047 80.2361 529.047 111.759C529.047 116.07 528.804 122.437 528.318 130.859C527.831 139.282 527.588 145.604 527.588 149.826C526.726 153.164 525.057 154.833 522.581 154.833C520.636 154.833 518.856 153.861 517.243 151.915C515.607 149.97 514.789 147.815 514.789 145.449C514.789 144.698 514.844 144.156 514.955 143.824C508.278 150.301 501.16 153.54 493.6 153.54C487.875 153.54 482.879 151.462 478.612 147.306C474.346 143.15 472.212 138.099 472.212 132.152C472.212 122.116 476.125 113.053 483.951 104.962C491.776 96.8709 500.652 92.8255 510.578 92.8255C511.02 92.8255 511.462 92.8476 511.904 92.8918C512.324 92.9582 512.832 93.0466 513.429 93.1571C514.026 93.2455 514.479 93.2898 514.789 93.2898C513.927 80.6672 508.909 74.3559 499.734 74.3559C494.341 74.3559 488.25 76.8981 481.464 81.9825ZM515.286 132.65C515.507 125.089 515.618 119.364 515.618 115.473C515.618 112.246 515.507 107.714 515.286 101.878H513.993C506.322 101.989 499.337 104.851 493.036 110.466C486.714 116.081 483.553 122.879 483.553 130.859C483.553 134.308 484.603 137.06 486.703 139.116C488.803 141.172 491.367 142.2 494.396 142.2C499.149 142.2 506.112 139.016 515.286 132.65ZM553.154 154.999L544.101 156.756L542.145 28.8615C545.174 27.3582 549.274 26.1203 554.447 25.1476C554.359 27.6235 554.315 31.5031 554.315 36.7865C554.315 48.4585 554.746 60.009 555.608 71.4378C560.781 68.5198 566.285 67.0608 572.121 67.0608C578.156 67.0608 583.285 68.4977 587.507 71.3715C591.707 74.2232 594.835 78.136 596.891 83.1099C598.947 88.0617 600.406 93.0797 601.268 98.1642C602.13 103.226 602.561 108.731 602.561 114.677C602.561 121.155 601.555 127.388 599.544 133.379C597.554 139.37 594.106 144.609 589.198 149.097C584.29 153.562 578.322 155.795 571.292 155.795C565.257 155.795 559.266 153.905 553.32 150.125C553.209 151.208 553.154 152.833 553.154 154.999ZM555.11 87.3211L554.613 139.447C555.276 141.393 557.299 142.929 560.681 144.056C564.085 145.184 567.788 145.748 571.789 145.748C575.57 145.748 578.731 145.029 581.273 143.592C583.793 142.133 585.705 140.022 587.009 137.259C588.314 134.518 589.198 131.633 589.662 128.604C590.149 125.576 590.392 122.116 590.392 118.225C590.392 114.246 590.182 110.334 589.762 106.487C589.32 102.663 588.457 98.4626 587.175 93.8866C585.871 89.2885 583.76 85.5858 580.842 82.7783C577.946 79.9708 574.332 78.5671 569.999 78.5671C566.882 78.5671 563.942 79.3518 561.178 80.9214C558.437 82.4909 556.415 84.6242 555.11 87.3211Z" fill="#BCDD33"/>
</g>
</g>
</g>
</g>
<g clip-path="url(#clip7_1_27)">
<g clip-path="url(#clip8_1_27)">
<path fill-rule="evenodd" clip-rule="evenodd" d="M676.929 76.1688C669.216 87.1096 669.635 108.966 666.653 124.22C662.883 143.538 649.133 153.863 633.634 162.019C638.267 143.021 642.209 124.022 643.786 105.024C645.708 81.5406 642.308 83.0684 662.686 66.2136C691.246 42.5332 737.596 23.3129 806.789 9.78474C867.309 -0.21968 931.204 -1.37783 996.553 1.1356C974.622 45.7119 904.566 49.4574 819.061 40.0937C774.435 40.5865 732.939 28.0687 676.929 76.1688ZM882.192 144.697C786.214 194.916 689.915 88.4155 656.353 161.65C708.199 116.531 781.507 240.084 882.192 144.697ZM943.525 81.9349C832.885 148.96 709.382 62.4188 674.76 127.743C758.837 97.3111 866.101 195.581 943.525 81.9349ZM964.076 45.5148C866.89 88.9084 716.602 10.9675 679.097 100.687C755.634 56.1353 887.219 136.121 964.076 45.5148Z" fill="#BCDD33"/>
</g>
</g>
</g>
</g>
</g>
<defs>
<clipPath id="clip0_1_27">
<rect width="1000" height="181" fill="white" transform="translate(-0.599915 0.452168)"/>
</clipPath>
<clipPath id="clip1_1_27">
<rect width="994.293" height="181.902" fill="white" transform="translate(2.24725 0.00108337)"/>
</clipPath>
<clipPath id="clip2_1_27">
<rect width="994.293" height="181.902" fill="white" transform="translate(2.24725 0.00108337)"/>
</clipPath>
<clipPath id="clip3_1_27">
<rect width="600.314" height="131.622" fill="white" transform="translate(2.24725 25.1409)"/>
</clipPath>
<clipPath id="clip4_1_27">
<rect width="600.314" height="131.622" fill="white" transform="translate(2.24725 25.1409)"/>
</clipPath>
<clipPath id="clip5_1_27">
<rect width="600.314" height="131.622" fill="white" transform="translate(2.24725 25.1409)"/>
</clipPath>
<clipPath id="clip6_1_27">
<rect width="600.314" height="131.622" fill="white" transform="translate(2.24725 25.1409)"/>
</clipPath>
<clipPath id="clip7_1_27">
<rect width="362.907" height="181.902" fill="white" transform="translate(633.634 0.00107956)"/>
</clipPath>
<clipPath id="clip8_1_27">
<rect width="362.907" height="181.902" fill="white" transform="translate(633.634 0.00107956)"/>
</clipPath>
</defs>
</svg>
