<svg width="313" height="56" viewBox="0 0 313 56" fill="none" xmlns="http://www.w3.org/2000/svg">
<path d="M0.591481 49.6245C5.61903 40.3021 9.6863 39.5421 19.4577 29.9879C21.9301 27.5711 24.128 25.6685 27.7368 23.5075C31.3827 21.3245 39.9378 18.8139 44.2356 16.8106C73.9076 2.98065 117.222 4.51151 145.842 3.64978C181.215 2.58459 217.12 0.838919 252.014 0.475497C268.057 0.308667 284.449 0.925943 298.947 2.01437C306.005 2.54473 311.026 3.56085 311.844 6.48889C312.588 9.16594 312.087 12.1186 311.361 15.0345C310.559 18.2585 305.967 21.9684 305.372 25.055C304.455 29.8189 296.649 36.2113 288.197 41.0831C273.32 49.6581 267.378 50.2189 246.655 50.9332C209.04 52.231 172.359 52.696 135.205 53.4898C117.922 53.8592 99.6688 54.4542 81.8584 55.4171C62.3853 56.4704 44.9774 55.3998 26.5852 55.4022C13.166 55.4035 -3.04123 56.363 0.591481 49.6245Z" fill="#D4E3EB"/>
</svg>
