<svg width="72" height="72" viewBox="0 0 72 72" fill="none" xmlns="http://www.w3.org/2000/svg">
<g clip-path="url(#clip0_106_32)">
<path d="M35.6328 71.9531C55.295 71.9531 71.2344 56.0138 71.2344 36.3516C71.2344 16.6894 55.295 0.75 35.6328 0.75C15.9706 0.75 0.03125 16.6894 0.03125 36.3516C0.03125 56.0138 15.9706 71.9531 35.6328 71.9531Z" fill="#A586EF"/>
<path d="M44.0196 24.9591C43.2372 25.1255 42.4286 25.1255 41.6462 24.9591L38.8769 24.5632C37.0807 24.4018 35.2788 24.8176 33.7341 25.7499C31.9273 26.8518 30.5362 28.521 29.7781 30.4968C29.3689 31.5098 29.1031 32.575 28.9872 33.6611C28.1015 40.283 29.9765 45.3858 28.1964 46.3191C27.7293 46.564 27.4056 46.3191 27.0097 46.715C26.6138 47.1109 26.4239 47.6957 27.0097 50.671C27.4768 53.0445 27.848 53.7252 27.4056 54.2312C27.0894 54.5948 26.4011 54.7372 25.0321 55.022C24.304 55.172 23.909 55.1957 23.8454 55.4179C23.7268 55.8052 24.7549 56.4385 25.0321 56.6046C29.2882 59.1993 35.3167 59.7689 35.3167 59.7689C36.662 59.8951 41.6462 60.3072 45.6013 58.9781C47.5077 58.3448 48.4969 57.5616 48.7656 56.6046C48.8187 56.4793 48.8463 56.3454 48.8463 56.2087C48.8463 56.072 48.8187 55.9382 48.7656 55.8128C48.2985 55.022 46.3921 56.129 44.4146 55.4169C43.7918 55.1635 43.226 54.7875 42.7503 54.3128C42.275 53.8373 41.8996 53.2714 41.6462 52.6486C41.2516 51.6307 41.2516 50.5021 41.6462 49.4843C42.3269 47.9017 43.6636 47.9653 46.3931 45.5283C46.9812 45.065 47.5124 44.5337 47.9757 43.9456C49.2498 42.0232 49.0437 39.6573 48.7665 36.8253C48.608 35.2427 48.5368 35.6548 48.3706 34.056C47.8409 28.9056 47.5798 26.255 47.5798 24.5623C47.5798 24.3173 47.5798 23.6205 47.1839 23.3755C47.0595 23.3205 46.9247 23.292 46.788 23.292C46.6513 23.292 46.5175 23.3205 46.3921 23.3755C45.1504 23.7553 44.9519 24.5547 44.0187 24.9581L44.0196 24.9591Z" fill="white"/>
<path d="M44.4952 15.3305C42.1844 15.5868 39.9059 16.071 37.6911 16.7783L32.3746 18.4321C29.3527 19.4603 25.4916 20.497 23.4504 23.1391C22.9543 23.8266 22.6103 24.6118 22.4412 25.4425C22.2721 26.2733 22.2818 27.1305 22.4697 27.9572L23.7675 35.331L26.3308 50.3624C26.4894 51.3356 27.1217 52.9894 26.2359 53.7565C25.483 54.2435 24.6001 54.4922 23.7039 54.4685C21.5365 54.6346 19.4241 54.9194 17.2406 54.8957C15.919 54.8957 16.0538 56.7631 17.288 56.897C19.2962 56.9747 21.3071 56.858 23.2928 56.5486C24.8042 56.4223 26.5207 56.2324 27.6676 55.1169C29.2502 53.5818 28.4584 51.2957 28.0948 49.4207L26.7106 41.9367L25.3815 34.4528C24.9381 31.9607 24.3134 29.5237 24.0837 27.0477C23.7039 23.0442 28.4508 21.6363 31.4337 20.5521C33.2929 19.8805 35.1712 19.2631 37.0664 18.7008C39.5898 17.91 42.2243 17.4429 44.6851 16.5334C45.3022 16.3036 45.2148 15.283 44.4952 15.339V15.3315V15.3305ZM44.968 21.1929L48.457 19.9748L51.9697 18.8119C52.1149 18.7663 52.2383 18.6704 52.3181 18.5413C52.3978 18.4122 52.4291 18.2584 52.4045 18.1084C52.383 17.9575 52.3064 17.8198 52.1895 17.722C52.0726 17.6242 51.9236 17.5731 51.7712 17.5786C50.4965 17.7901 49.2492 18.1429 48.0525 18.6305C46.8502 19.0912 45.6749 19.6196 44.5322 20.2131C44.0025 20.4904 44.406 21.3837 44.9671 21.1787V21.1948L44.968 21.1929ZM43.7727 28.9151L43.7177 31.4946C43.6551 32.3048 43.6844 33.1195 43.805 33.9231C43.862 34.2724 44.0357 34.5933 44.2968 34.8326C44.558 35.072 44.8919 35.2171 45.2452 35.2446C45.5737 35.2277 45.8923 35.127 46.1709 34.9522L46.4956 34.7462L46.5905 34.6826C46.5905 34.7462 46.1234 34.5639 46.2981 34.6351L45.8547 33.9069C45.9749 34.9572 46.0013 36.0162 45.9335 37.0712C45.9414 37.3042 46.0403 37.5249 46.2088 37.686C46.3774 37.8471 46.6023 37.9358 46.8354 37.9332C47.0682 37.9206 47.2872 37.8193 47.4476 37.6501C47.6079 37.481 47.6973 37.2568 47.6975 37.0237C47.7538 35.9673 47.7116 34.908 47.5712 33.8595C47.5541 33.6781 47.4829 33.5063 47.3671 33.3648C47.2514 33.2239 47.0964 33.1205 46.9218 33.0677C46.6569 33.0013 46.3797 33.0012 46.1148 33.0674C45.8498 33.1336 45.6053 33.2642 45.4028 33.4474L45.2443 33.55C45.1493 33.605 45.1332 33.6136 45.1968 33.55C45.2604 33.4864 45.5927 33.6525 45.4503 33.6288V33.55C45.4246 33.4787 45.4087 33.4043 45.4028 33.3288L45.1731 31.1452L44.8721 28.8904C44.8718 28.7477 44.8152 28.6109 44.7145 28.5097C44.6139 28.4081 44.4772 28.3521 44.3338 28.3521C44.1911 28.3524 44.0543 28.4091 43.9531 28.5097C43.8515 28.6104 43.7955 28.7471 43.7955 28.8904L43.7718 28.9142L43.7727 28.9151ZM35.7762 32.8702C36.2755 32.0623 37.0654 31.4765 37.9835 31.2325C38.4282 31.1471 38.887 31.1715 39.3202 31.3037C39.7773 31.4638 40.1991 31.7111 40.562 32.0319C40.7029 32.1761 40.8932 32.2616 41.0946 32.2712C41.2962 32.2802 41.4936 32.2116 41.6461 32.0794C41.7999 31.9588 41.9044 31.7851 41.9376 31.5923C41.9708 31.3996 41.9319 31.2012 41.8275 31.0351C39.8974 28.6616 35.498 29.3974 34.7072 32.443C34.6795 32.581 34.7013 32.7243 34.7689 32.8478C34.8364 32.9712 34.9453 33.0669 35.0765 33.118C35.2073 33.1693 35.3519 33.1737 35.4857 33.1303C35.6195 33.0867 35.7334 32.9974 35.8075 32.8778L35.7762 32.8702ZM47.2788 23.4401C47.6899 27.2774 48.3706 31.0987 48.9801 34.9038C49.2725 36.7237 49.6285 38.5427 49.7709 40.3788C50.0316 42.005 49.7539 43.6718 48.9801 45.1257C48.0589 46.3666 46.8436 47.359 45.4436 48.0137C44.2807 48.6707 42.8879 49.2792 42.192 50.4982C41.8841 51.0436 41.7742 51.6787 41.881 52.2959C41.9877 52.913 42.3046 53.4743 42.7778 53.8846C44.0196 55.0077 45.7446 54.8976 47.2949 54.8264C51.6307 54.6441 55.9978 54.5254 60.3175 54.0356C61.528 53.9008 61.528 52.0818 60.2776 52.1292C56.7099 52.264 53.1573 52.6039 49.581 52.8014L47.0576 52.9362C46.1882 53.0819 45.2967 53.0224 44.4544 52.7625C42.5794 51.8767 44.6917 50.539 45.625 50.033C47.9984 48.7438 50.4905 47.2722 51.3526 44.4953C52.2782 41.5048 51.2576 38.1658 50.6956 35.1838C49.9437 31.2278 49.2715 27.1692 48.3222 23.2293C48.2789 23.1047 48.1932 22.9994 48.0799 22.9319C47.9667 22.8643 47.8333 22.8389 47.7032 22.86C47.5731 22.8805 47.4544 22.9462 47.368 23.0455C47.2815 23.1448 47.2328 23.2714 47.2304 23.403L47.2778 23.4429L47.2788 23.4401Z" fill="black"/>
<path d="M46.8982 30.7977L46.9533 30.7104C47.0008 30.623 46.8897 30.7816 46.9533 30.7104L47.072 30.568L47.1508 30.4968C47.1508 30.4968 47.2457 30.418 47.1508 30.4968C47.0558 30.5756 47.1508 30.4968 47.1508 30.4968L47.2381 30.4417L47.4042 30.3468L47.483 30.3069C47.3482 30.3942 47.4042 30.3069 47.483 30.3069C47.6017 30.2594 47.7232 30.2195 47.8466 30.1882H47.934C48.0128 30.1882 47.7678 30.1882 47.8789 30.1882H48.0849H48.2587C48.3299 30.1882 48.4011 30.2281 48.2587 30.1882H48.3612L48.5273 30.2281H48.6223C48.7334 30.2281 48.5036 30.173 48.5748 30.2281C48.7625 30.3493 48.977 30.4226 49.1995 30.4417C49.3112 30.4411 49.4207 30.4107 49.5166 30.3536C49.6126 30.2966 49.6916 30.2149 49.7454 30.117C49.7999 30.0176 49.8285 29.9061 49.8285 29.7928C49.8285 29.6795 49.7999 29.568 49.7454 29.4686C49.5778 29.2388 49.3338 29.0762 49.0571 29.01C48.9271 28.9602 48.7917 28.9257 48.6536 28.9075C48.2767 28.8467 47.8913 28.8657 47.522 28.9626C47.1809 29.0484 46.8626 29.2076 46.5893 29.4289C46.316 29.6502 46.0942 29.9285 45.9393 30.2442C45.8921 30.3107 45.8594 30.3864 45.8435 30.4664C45.8273 30.5461 45.8283 30.6287 45.8463 30.7085C45.8643 30.7882 45.8985 30.8632 45.9479 30.9278C45.9973 30.9923 46.059 31.0464 46.1302 31.0863C46.2015 31.1255 46.2803 31.1493 46.3615 31.156C46.4426 31.1627 46.5242 31.1522 46.6011 31.1252C46.678 31.098 46.7483 31.0549 46.8073 30.9986C46.8664 30.9423 46.9129 30.8742 46.9438 30.7987H46.8963L46.8982 30.7977Z" fill="black"/>
</g>
<defs>
<clipPath id="clip0_106_32">
<rect width="71.2031" height="71.2031" fill="white" transform="translate(0.03125 0.75)"/>
</clipPath>
</defs>
</svg>
