<svg width="72" height="72" viewBox="0 0 72 72" fill="none" xmlns="http://www.w3.org/2000/svg">
<g clip-path="url(#clip0_106_45)">
<path d="M35.6328 71.8906C55.295 71.8906 71.2344 55.9513 71.2344 36.2891C71.2344 16.6269 55.295 0.6875 35.6328 0.6875C15.9706 0.6875 0.03125 16.6269 0.03125 36.2891C0.03125 55.9513 15.9706 71.8906 35.6328 71.8906Z" fill="#36D6C3"/>
<path d="M44.0196 24.8965C43.2372 25.0628 42.4286 25.0628 41.6462 24.8965L38.8769 24.5006C37.0807 24.3392 35.2788 24.755 33.7341 25.6873C31.9273 26.7892 30.5362 28.4583 29.7781 30.4342C29.3689 31.4472 29.1031 32.5124 28.9872 33.5984C28.1015 40.2203 29.9765 45.3232 28.1964 46.2565C27.7293 46.5014 27.4056 46.2565 27.0097 46.6523C26.6138 47.0482 26.4239 47.6331 27.0097 50.6084C27.4768 52.9818 27.848 53.6625 27.4056 54.1686C27.0894 54.5322 26.4011 54.6746 25.0321 54.9594C24.304 55.1094 23.909 55.1331 23.8454 55.3553C23.7268 55.7426 24.7549 56.3758 25.0321 56.542C29.2882 59.1366 35.3167 59.7063 35.3167 59.7063C36.662 59.8325 41.6462 60.2446 45.6013 58.9154C47.5077 58.2822 48.4969 57.499 48.7656 56.542C48.8187 56.4167 48.8463 56.2828 48.8463 56.1461C48.8463 56.0094 48.8187 55.8755 48.7656 55.7502C48.2985 54.9594 46.3921 56.0664 44.4146 55.3543C43.7918 55.1008 43.226 54.7249 42.7503 54.2502C42.275 53.7746 41.8996 53.2088 41.6462 52.5859C41.2516 51.5681 41.2516 50.4395 41.6462 49.4217C42.3269 47.8391 43.6636 47.9027 46.3931 45.4656C46.9812 45.0023 47.5124 44.4711 47.9757 43.883C49.2498 41.9605 49.0437 39.5947 48.7665 36.7627C48.608 35.1801 48.5368 35.5921 48.3706 33.9934C47.8409 28.843 47.5798 26.1924 47.5798 24.4996C47.5798 24.2547 47.5798 23.5579 47.1839 23.3129C47.0595 23.2579 46.9247 23.2294 46.788 23.2294C46.6513 23.2294 46.5175 23.2579 46.3921 23.3129C45.1504 23.6927 44.9519 24.492 44.0187 24.8955L44.0196 24.8965Z" fill="white"/>
<path d="M44.4952 15.2679C42.1844 15.5243 39.9059 16.0085 37.6911 16.7157L32.3746 18.3696C29.3527 19.3977 25.4916 20.4344 23.4504 23.0766C22.9543 23.764 22.6103 24.5492 22.4412 25.38C22.2721 26.2107 22.2818 27.0679 22.4697 27.8946L23.7675 35.2684L26.3308 50.2999C26.4894 51.273 27.1217 52.9268 26.2359 53.6939C25.483 54.1809 24.6001 54.4297 23.7039 54.4059C21.5365 54.5721 19.4241 54.8569 17.2406 54.8331C15.919 54.8331 16.0538 56.7006 17.288 56.8344C19.2962 56.9121 21.3071 56.7955 23.2928 56.486C24.8042 56.3597 26.5207 56.1699 27.6676 55.0543C29.2502 53.5192 28.4584 51.2331 28.0948 49.3581L26.7106 41.8742L25.3815 34.3903C24.9381 31.8981 24.3134 29.4611 24.0837 26.9851C23.7039 22.9816 28.4508 21.5737 31.4337 20.4895C33.2929 19.8179 35.1712 19.2005 37.0664 18.6382C39.5898 17.8474 42.2243 17.3803 44.6851 16.4708C45.3022 16.2411 45.2148 15.2205 44.4952 15.2765V15.2689V15.2679ZM44.968 21.1303L48.457 19.9123L51.9697 18.7493C52.1149 18.7037 52.2383 18.6078 52.3181 18.4787C52.3978 18.3496 52.4291 18.1958 52.4045 18.0458C52.383 17.8949 52.3064 17.7573 52.1895 17.6594C52.0726 17.5616 51.9236 17.5106 51.7712 17.5161C50.4965 17.7275 49.2492 18.0804 48.0525 18.568C46.8502 19.0287 45.6749 19.5571 44.5322 20.1506C44.0025 20.4278 44.406 21.3212 44.9671 21.1161V21.1322L44.968 21.1303ZM43.7727 28.8526L43.7177 31.432C43.6551 32.2422 43.6844 33.0569 43.805 33.8605C43.862 34.2099 44.0357 34.5308 44.2968 34.77C44.558 35.0095 44.8919 35.1545 45.2452 35.182C45.5737 35.1651 45.8923 35.0645 46.1709 34.8896L46.4956 34.6836L46.5905 34.62C46.5905 34.6836 46.1234 34.5013 46.2981 34.5725L45.8547 33.8444C45.9749 34.8947 46.0013 35.9536 45.9335 37.0086C45.9414 37.2417 46.0403 37.4623 46.2088 37.6234C46.3774 37.7845 46.6023 37.8733 46.8354 37.8707C47.0682 37.858 47.2872 37.7567 47.4476 37.5876C47.6079 37.4184 47.6973 37.1942 47.6975 36.9612C47.7538 35.9048 47.7116 34.8454 47.5712 33.7969C47.5541 33.6156 47.4829 33.4437 47.3671 33.3023C47.2514 33.1613 47.0964 33.0579 46.9218 33.0051C46.6569 32.9387 46.3797 32.9386 46.1148 33.0048C45.8498 33.0711 45.6053 33.2016 45.4028 33.3849L45.2443 33.4874C45.1493 33.5425 45.1332 33.551 45.1968 33.4874C45.2604 33.4238 45.5927 33.5899 45.4503 33.5662V33.4874C45.4246 33.4161 45.4087 33.3417 45.4028 33.2662L45.1731 31.0826L44.8721 28.8279C44.8718 28.6852 44.8152 28.5483 44.7145 28.4472C44.6139 28.3456 44.4772 28.2896 44.3338 28.2896C44.1911 28.2898 44.0543 28.3465 43.9531 28.4472C43.8515 28.5478 43.7955 28.6845 43.7955 28.8279L43.7718 28.8516L43.7727 28.8526ZM35.7762 32.8076C36.2755 31.9997 37.0654 31.414 37.9835 31.17C38.4282 31.0845 38.887 31.109 39.3202 31.2412C39.7773 31.4012 40.1991 31.6485 40.562 31.9693C40.7029 32.1136 40.8932 32.199 41.0946 32.2086C41.2962 32.2177 41.4936 32.149 41.6461 32.0168C41.7999 31.8962 41.9044 31.7225 41.9376 31.5298C41.9708 31.3371 41.9319 31.1386 41.8275 30.9725C39.8974 28.5991 35.498 29.3348 34.7072 32.3804C34.6795 32.5184 34.7013 32.6617 34.7689 32.7852C34.8364 32.9087 34.9453 33.0044 35.0765 33.0554C35.2073 33.1068 35.3519 33.1111 35.4857 33.0678C35.6195 33.0241 35.7334 32.9349 35.8075 32.8152L35.7762 32.8076ZM47.2788 23.3775C47.6899 27.2149 48.3706 31.0361 48.9801 34.8412C49.2725 36.6612 49.6285 38.4802 49.7709 40.3163C50.0316 41.9424 49.7539 43.6093 48.9801 45.0631C48.0589 46.304 46.8436 47.2965 45.4436 47.9511C44.2807 48.6081 42.8879 49.2166 42.192 50.4356C41.8841 50.9811 41.7742 51.6161 41.881 52.2333C41.9877 52.8505 42.3046 53.4118 42.7778 53.8221C44.0196 54.9452 45.7446 54.835 47.2949 54.7638C51.6307 54.5816 55.9978 54.4629 60.3175 53.973C61.528 53.8382 61.528 52.0192 60.2776 52.0667C56.7099 52.2015 53.1573 52.5414 49.581 52.7388L47.0576 52.8736C46.1882 53.0193 45.2967 52.9598 44.4544 52.6999C42.5794 51.8141 44.6917 50.4765 45.625 49.9704C47.9984 48.6812 50.4905 47.2097 51.3526 44.4327C52.2782 41.4422 51.2576 38.1033 50.6956 35.1213C49.9437 31.1652 49.2715 27.1067 48.3222 23.1667C48.2789 23.0422 48.1932 22.9369 48.0799 22.8693C47.9667 22.8017 47.8333 22.7763 47.7032 22.7974C47.5731 22.8179 47.4544 22.8836 47.368 22.9829C47.2815 23.0822 47.2328 23.2088 47.2304 23.3405L47.2778 23.3804L47.2788 23.3775Z" fill="black"/>
<path d="M46.8982 30.7352L46.9533 30.6479C47.0008 30.5605 46.8897 30.7191 46.9533 30.6479L47.072 30.5055L47.1508 30.4343C47.1508 30.4343 47.2457 30.3555 47.1508 30.4343C47.0558 30.5131 47.1508 30.4343 47.1508 30.4343L47.2381 30.3792L47.4042 30.2843L47.483 30.2444C47.3482 30.3317 47.4042 30.2444 47.483 30.2444C47.6017 30.1969 47.7232 30.157 47.8466 30.1257H47.934C48.0128 30.1257 47.7678 30.1257 47.8789 30.1257H48.0849H48.2587C48.3299 30.1257 48.4011 30.1656 48.2587 30.1257H48.3612L48.5273 30.1656H48.6223C48.7334 30.1656 48.5036 30.1105 48.5748 30.1656C48.7625 30.2868 48.977 30.3601 49.1995 30.3792C49.3112 30.3786 49.4207 30.3482 49.5166 30.2911C49.6126 30.2341 49.6916 30.1524 49.7454 30.0545C49.7999 29.9551 49.8285 29.8436 49.8285 29.7303C49.8285 29.617 49.7999 29.5055 49.7454 29.4061C49.5778 29.1763 49.3338 29.0137 49.0571 28.9475C48.9271 28.8977 48.7917 28.8632 48.6536 28.845C48.2767 28.7842 47.8913 28.8032 47.522 28.9001C47.1809 28.9859 46.8626 29.1451 46.5893 29.3664C46.316 29.5877 46.0942 29.866 45.9393 30.1817C45.8921 30.2482 45.8594 30.3239 45.8435 30.4039C45.8273 30.4836 45.8283 30.5662 45.8463 30.646C45.8643 30.7257 45.8985 30.8007 45.9479 30.8653C45.9973 30.9298 46.059 30.9839 46.1302 31.0238C46.2015 31.063 46.2803 31.0868 46.3615 31.0935C46.4426 31.1002 46.5242 31.0897 46.6011 31.0627C46.678 31.0355 46.7483 30.9924 46.8073 30.9361C46.8664 30.8798 46.9129 30.8117 46.9438 30.7362H46.8963L46.8982 30.7352Z" fill="black"/>
</g>
<defs>
<clipPath id="clip0_106_45">
<rect width="71.2031" height="71.2031" fill="white" transform="translate(0.03125 0.6875)"/>
</clipPath>
</defs>
</svg>
