<svg width="72" height="72" viewBox="0 0 72 72" fill="none" xmlns="http://www.w3.org/2000/svg">
<g clip-path="url(#clip0_106_58)">
<path d="M35.6328 71.5625C55.295 71.5625 71.2344 55.6231 71.2344 35.9609C71.2344 16.2987 55.295 0.359375 35.6328 0.359375C15.9706 0.359375 0.03125 16.2987 0.03125 35.9609C0.03125 55.6231 15.9706 71.5625 35.6328 71.5625Z" fill="#FF8080"/>
<path d="M44.0196 24.5683C43.2372 24.7347 42.4286 24.7347 41.6462 24.5683L38.8769 24.1725C37.0807 24.0111 35.2788 24.4269 33.7341 25.3592C31.9273 26.461 30.5362 28.1302 29.7781 30.1061C29.3689 31.119 29.1031 32.1842 28.9872 33.2703C28.1015 39.8922 29.9765 44.9951 28.1964 45.9283C27.7293 46.1733 27.4056 45.9283 27.0097 46.3242C26.6138 46.7201 26.4239 47.3049 27.0097 50.2803C27.4768 52.6537 27.848 53.3344 27.4056 53.8404C27.0894 54.204 26.4011 54.3464 25.0321 54.6313C24.304 54.7813 23.909 54.805 23.8454 55.0271C23.7268 55.4145 24.7549 56.0477 25.0321 56.2139C29.2882 58.8085 35.3167 59.3781 35.3167 59.3781C36.662 59.5044 41.6462 59.9164 45.6013 58.5873C47.5077 57.9541 48.4969 57.1708 48.7656 56.2139C48.8187 56.0885 48.8463 55.9547 48.8463 55.818C48.8463 55.6813 48.8187 55.5474 48.7656 55.4221C48.2985 54.6313 46.3921 55.7382 44.4146 55.0262C43.7918 54.7727 43.226 54.3968 42.7503 53.9221C42.275 53.4465 41.8996 52.8807 41.6462 52.2578C41.2516 51.24 41.2516 50.1114 41.6462 49.0936C42.3269 47.5109 43.6636 47.5746 46.3931 45.1375C46.9812 44.6742 47.5124 44.143 47.9757 43.5549C49.2498 41.6324 49.0437 39.2666 48.7665 36.4346C48.608 34.852 48.5368 35.264 48.3706 33.6653C47.8409 28.5149 47.5798 25.8642 47.5798 24.1715C47.5798 23.9266 47.5798 23.2297 47.1839 22.9848C47.0595 22.9297 46.9247 22.9012 46.788 22.9012C46.6513 22.9012 46.5175 22.9297 46.3921 22.9848C45.1504 23.3645 44.9519 24.1639 44.0187 24.5674L44.0196 24.5683Z" fill="white"/>
<path d="M44.4952 14.9398C42.1844 15.1962 39.9059 15.6803 37.6911 16.3876L32.3746 18.0414C29.3527 19.0696 25.4916 20.1063 23.4504 22.7484C22.9543 23.4359 22.6103 24.2211 22.4412 25.0518C22.2721 25.8826 22.2818 26.7398 22.4697 27.5665L23.7675 34.9403L26.3308 49.9718C26.4894 50.9449 27.1217 52.5987 26.2359 53.3658C25.483 53.8528 24.6001 54.1015 23.7039 54.0778C21.5365 54.2439 19.4241 54.5288 17.2406 54.505C15.919 54.505 16.0538 56.3724 17.288 56.5063C19.2962 56.584 21.3071 56.4673 23.2928 56.1579C24.8042 56.0316 26.5207 55.8417 27.6676 54.7262C29.2502 53.1911 28.4584 50.905 28.0948 49.03L26.7106 41.5461L25.3815 34.0621C24.9381 31.57 24.3134 29.133 24.0837 26.657C23.7039 22.6535 28.4508 21.2456 31.4337 20.1614C33.2929 19.4898 35.1712 18.8724 37.0664 18.3101C39.5898 17.5193 42.2243 17.0522 44.6851 16.1427C45.3022 15.9129 45.2148 14.8924 44.4952 14.9484V14.9408V14.9398ZM44.968 20.8022L48.457 19.5842L51.9697 18.4212C52.1149 18.3756 52.2383 18.2797 52.3181 18.1506C52.3978 18.0215 52.4291 17.8677 52.4045 17.7177C52.383 17.5668 52.3064 17.4291 52.1895 17.3313C52.0726 17.2335 51.9236 17.1824 51.7712 17.1879C50.4965 17.3994 49.2492 17.7522 48.0525 18.2398C46.8502 18.7006 45.6749 19.2289 44.5322 19.8225C44.0025 20.0997 44.406 20.993 44.9671 20.788V20.8041L44.968 20.8022ZM43.7727 28.5244L43.7177 31.1039C43.6551 31.9141 43.6844 32.7288 43.805 33.5324C43.862 33.8818 44.0357 34.2026 44.2968 34.4419C44.558 34.6814 44.8919 34.8264 45.2452 34.8539C45.5737 34.837 45.8923 34.7364 46.1709 34.5615L46.4956 34.3555L46.5905 34.2919C46.5905 34.3555 46.1234 34.1732 46.2981 34.2444L45.8547 33.5162C45.9749 34.5666 46.0013 35.6255 45.9335 36.6805C45.9414 36.9135 46.0403 37.1342 46.2088 37.2953C46.3774 37.4564 46.6023 37.5452 46.8354 37.5425C47.0682 37.5299 47.2872 37.4286 47.4476 37.2594C47.6079 37.0903 47.6973 36.8661 47.6975 36.633C47.7538 35.5767 47.7116 34.5173 47.5712 33.4688C47.5541 33.2874 47.4829 33.1156 47.3671 32.9741C47.2514 32.8332 47.0964 32.7298 46.9218 32.677C46.6569 32.6106 46.3797 32.6105 46.1148 32.6767C45.8498 32.7429 45.6053 32.8735 45.4028 33.0567L45.2443 33.1593C45.1493 33.2143 45.1332 33.2229 45.1968 33.1593C45.2604 33.0957 45.5927 33.2618 45.4503 33.2381V33.1593C45.4246 33.088 45.4087 33.0136 45.4028 32.9381L45.1731 30.7545L44.8721 28.4997C44.8718 28.357 44.8152 28.2202 44.7145 28.119C44.6139 28.0175 44.4772 27.9614 44.3338 27.9614C44.1911 27.9617 44.0543 28.0184 43.9531 28.119C43.8515 28.2197 43.7955 28.3564 43.7955 28.4997L43.7718 28.5235L43.7727 28.5244ZM35.7762 32.4795C36.2755 31.6716 37.0654 31.0858 37.9835 30.8419C38.4282 30.7564 38.887 30.7809 39.3202 30.9131C39.7773 31.0731 40.1991 31.3204 40.562 31.6412C40.7029 31.7854 40.8932 31.8709 41.0946 31.8805C41.2962 31.8895 41.4936 31.8209 41.6461 31.6887C41.7999 31.5681 41.9044 31.3944 41.9376 31.2017C41.9708 31.0089 41.9319 30.8105 41.8275 30.6444C39.8974 28.2709 35.498 29.0067 34.7072 32.0523C34.6795 32.1903 34.7013 32.3336 34.7689 32.4571C34.8364 32.5805 34.9453 32.6762 35.0765 32.7273C35.2073 32.7786 35.3519 32.783 35.4857 32.7396C35.6195 32.696 35.7334 32.6067 35.8075 32.4871L35.7762 32.4795ZM47.2788 23.0494C47.6899 26.8868 48.3706 30.708 48.9801 34.5131C49.2725 36.333 49.6285 38.152 49.7709 39.9881C50.0316 41.6143 49.7539 43.2812 48.9801 44.735C48.0589 45.9759 46.8436 46.9683 45.4436 47.623C44.2807 48.28 42.8879 48.8885 42.192 50.1075C41.8841 50.6529 41.7742 51.288 41.881 51.9052C41.9877 52.5224 42.3046 53.0836 42.7778 53.4939C44.0196 54.617 45.7446 54.5069 47.2949 54.4357C51.6307 54.2534 55.9978 54.1348 60.3175 53.6449C61.528 53.5101 61.528 51.6911 60.2776 51.7385C56.7099 51.8734 53.1573 52.2132 49.581 52.4107L47.0576 52.5455C46.1882 52.6912 45.2967 52.6317 44.4544 52.3718C42.5794 51.486 44.6917 50.1483 45.625 49.6423C47.9984 48.3531 50.4905 46.8815 51.3526 44.1046C52.2782 41.1141 51.2576 37.7751 50.6956 34.7931C49.9437 30.8371 49.2715 26.7785 48.3222 22.8386C48.2789 22.7141 48.1932 22.6087 48.0799 22.5412C47.9667 22.4736 47.8333 22.4482 47.7032 22.4693C47.5731 22.4898 47.4544 22.5555 47.368 22.6548C47.2815 22.7541 47.2328 22.8807 47.2304 23.0124L47.2778 23.0522L47.2788 23.0494Z" fill="black"/>
<path d="M46.8982 30.4071L46.9533 30.3197C47.0008 30.2324 46.8897 30.3909 46.9533 30.3197L47.072 30.1773L47.1508 30.1061C47.1508 30.1061 47.2457 30.0273 47.1508 30.1061C47.0558 30.1849 47.1508 30.1061 47.1508 30.1061L47.2381 30.0511L47.4042 29.9561L47.483 29.9163C47.3482 30.0036 47.4042 29.9163 47.483 29.9163C47.6017 29.8688 47.7232 29.8289 47.8466 29.7976H47.934C48.0128 29.7976 47.7678 29.7976 47.8789 29.7976H48.0849H48.2587C48.3299 29.7976 48.4011 29.8375 48.2587 29.7976H48.3612L48.5273 29.8375H48.6223C48.7334 29.8375 48.5036 29.7824 48.5748 29.8375C48.7625 29.9586 48.977 30.032 49.1995 30.0511C49.3112 30.0505 49.4207 30.0201 49.5166 29.963C49.6126 29.9059 49.6916 29.8242 49.7454 29.7264C49.7999 29.627 49.8285 29.5155 49.8285 29.4022C49.8285 29.2888 49.7999 29.1773 49.7454 29.078C49.5778 28.8481 49.3338 28.6856 49.0571 28.6194C48.9271 28.5695 48.7917 28.5351 48.6536 28.5169C48.2767 28.4561 47.8913 28.4751 47.522 28.5719C47.1809 28.6578 46.8626 28.8169 46.5893 29.0383C46.316 29.2596 46.0942 29.5378 45.9393 29.8536C45.8921 29.9201 45.8594 29.9958 45.8435 30.0758C45.8273 30.1555 45.8283 30.2381 45.8463 30.3178C45.8643 30.3976 45.8985 30.4726 45.9479 30.5372C45.9973 30.6017 46.059 30.6558 46.1302 30.6957C46.2015 30.7349 46.2803 30.7587 46.3615 30.7654C46.4426 30.7721 46.5242 30.7616 46.6011 30.7346C46.678 30.7074 46.7483 30.6642 46.8073 30.6079C46.8664 30.5517 46.9129 30.4835 46.9438 30.408H46.8963L46.8982 30.4071Z" fill="black"/>
</g>
<defs>
<clipPath id="clip0_106_58">
<rect width="71.2031" height="71.2031" fill="white" transform="translate(0.03125 0.359375)"/>
</clipPath>
</defs>
</svg>
