<svg width="19" height="20" viewBox="0 0 19 20" fill="none" xmlns="http://www.w3.org/2000/svg">
<g clip-path="url(#clip0_1_820)">
<path d="M9.59909 5.30478C7.02373 5.30478 4.94527 7.388 4.94527 9.96922C4.94527 12.5506 7.02373 14.6338 9.59909 14.6338C12.1745 14.6338 14.253 12.5506 14.253 9.96922C14.253 7.388 12.1745 5.30478 9.59909 5.30478ZM9.59909 13.0009C7.93363 13.0009 6.57445 11.6386 6.57445 9.96922C6.57445 8.29997 7.93363 6.93769 9.59909 6.93769C11.2646 6.93769 12.6238 8.29997 12.6238 9.96922C12.6238 11.6386 11.2646 13.0009 9.59909 13.0009ZM14.4436 4.02665C13.8423 4.02665 13.3567 4.51334 13.3567 5.11602C13.3567 5.7187 13.8423 6.20538 14.4436 6.20538C15.0449 6.20538 15.5305 5.72097 15.5305 5.11602C15.5307 4.97291 15.5026 4.83117 15.4481 4.69893C15.3935 4.56667 15.3135 4.44651 15.2125 4.34532C15.1115 4.24413 14.9917 4.1639 14.8597 4.10921C14.7278 4.05453 14.5864 4.02647 14.4436 4.02665ZM18.6709 9.96922C18.6709 8.71388 18.6822 7.46987 18.6118 6.21675C18.5415 4.76123 18.2103 3.46946 17.1483 2.40511C16.0841 1.33849 14.7975 1.00873 13.3454 0.938225C12.0928 0.867723 10.8516 0.879094 9.6014 0.879094C8.34887 0.879094 7.10769 0.867723 5.85743 0.938225C4.40522 1.00873 3.1164 1.34077 2.05447 2.40511C0.990277 3.47174 0.661262 4.76123 0.590921 6.21675C0.52058 7.47214 0.531925 8.71615 0.531925 9.96922C0.531925 11.2224 0.52058 12.4687 0.590921 13.7218C0.661262 15.1773 0.992546 16.4691 2.05447 17.5335C3.11866 18.6 4.40522 18.9298 5.85743 19.0003C7.10996 19.0708 8.35114 19.0594 9.6014 19.0594C10.8539 19.0594 12.0951 19.0708 13.3454 19.0003C14.7975 18.9298 16.0864 18.5977 17.1483 17.5335C18.2125 16.4668 18.5415 15.1773 18.6118 13.7218C18.6845 12.4687 18.6709 11.2246 18.6709 9.96922ZM16.6741 15.3319C16.5084 15.7459 16.3087 16.0552 15.9888 16.3735C15.6689 16.6942 15.3625 16.8943 14.9496 17.0604C13.7561 17.5357 10.922 17.4288 9.59909 17.4288C8.27626 17.4288 5.43992 17.5357 4.24639 17.0626C3.83342 16.8966 3.52482 16.6965 3.20716 16.3758C2.88722 16.0552 2.68754 15.7482 2.5219 15.3342C2.04993 14.1357 2.15658 11.2951 2.15658 9.96922C2.15658 8.64338 2.04993 5.80057 2.5219 4.60432C2.68754 4.1904 2.88722 3.8811 3.20716 3.56271C3.5271 3.24431 3.83342 3.04191 4.24639 2.87589C5.43992 2.40284 8.27626 2.50973 9.59909 2.50973C10.922 2.50973 13.7583 2.40284 14.9519 2.87589C15.3648 3.04191 15.6734 3.24204 15.9911 3.56271C16.311 3.88337 16.5107 4.1904 16.6763 4.60432C17.1483 5.80057 17.0417 8.64338 17.0417 9.96922C17.0417 11.2951 17.1483 14.1357 16.6741 15.3319Z" fill="white"/>
</g>
<defs>
<clipPath id="clip0_1_820">
<rect width="18.1406" height="18.9652" fill="white" transform="translate(0.53125 0.533203)"/>
</clipPath>
</defs>
</svg>
