<svg width="19" height="20" viewBox="0 0 19 20" fill="none" xmlns="http://www.w3.org/2000/svg">
<g clip-path="url(#clip0_1_816)">
<path d="M3.55489 0.878418C1.59998 0.878418 0 2.48198 0 4.44135V15.4977C0 17.4571 1.59994 19.0602 3.55489 19.0602H14.5863C16.5413 19.0602 18.1406 17.4571 18.1406 15.4977V4.44135C18.1406 2.48202 16.5413 0.878418 14.5863 0.878418H3.55489ZM4.44899 3.87877C5.38633 3.87877 5.96369 4.4955 5.98151 5.30619C5.98151 6.09899 5.38629 6.73306 4.43086 6.73306H4.41328C3.49378 6.73306 2.89947 6.09903 2.89947 5.30619C2.89947 4.49552 3.51176 3.87877 4.44897 3.87877H4.44899ZM12.5265 7.66785C14.3292 7.66785 15.6806 8.84879 15.6806 11.3865V16.1239H12.941V11.7041C12.941 10.5934 12.5445 9.83573 11.5531 9.83573C10.7962 9.83573 10.3451 10.3464 10.147 10.8398C10.0746 11.0163 10.0568 11.2628 10.0568 11.5098V16.1239H7.31728C7.31728 16.1239 7.35323 8.63685 7.31728 7.86161H10.0574V9.0316C10.4215 8.46867 11.0727 7.66783 12.5265 7.66783V7.66785ZM3.06107 7.8622H5.80064V16.124H3.06107V7.8622Z" fill="white"/>
</g>
<defs>
<clipPath id="clip0_1_816">
<rect width="18.1406" height="18.9652" fill="white" transform="translate(0 0.533203)"/>
</clipPath>
</defs>
</svg>
