<svg width="20" height="31" viewBox="0 0 20 31" fill="none" xmlns="http://www.w3.org/2000/svg">
<g clip-path="url(#clip0_20_271)">
<path fill-rule="evenodd" clip-rule="evenodd" d="M15 13.3938C17.8125 13.7047 20 16.0891 20 18.9844V30.2344C20 30.5796 19.7202 30.8594 19.375 30.8594C19.0298 30.8594 18.75 30.5796 18.75 30.2344V18.9844C18.75 16.7804 17.1202 14.957 15 14.6538V22.1094C15 23.4902 13.8807 24.6094 12.5 24.6094C11.3838 24.6094 10.3977 24.3099 9.56049 23.7102C9.24209 23.4821 8.86028 23.3595 8.46812 23.3595C8.14665 23.3594 7.88844 23.5456 7.79646 23.8215C7.65778 24.2375 7.741 24.6429 7.99866 24.9328L12.3421 29.8192C12.5715 30.0772 12.5482 30.4723 12.2902 30.7016C12.0322 30.9309 11.6372 30.9077 11.4079 30.6497L8.2499 27.097C8.20955 27.1052 8.16777 27.1094 8.125 27.1094H3.125C1.39911 27.1094 0 25.7103 0 23.9844V3.98438C0 2.25848 1.39911 0.859375 3.125 0.859375H11.875C13.6009 0.859375 15 2.25848 15 3.98438V13.3938ZM7.0644 25.7633C6.50969 25.1392 6.33054 24.2664 6.59457 23.4743C6.87273 22.6398 7.60861 22.1094 8.43801 22.1094C9.12138 22.1095 9.75775 22.3139 10.2884 22.694C10.9074 23.1374 11.6383 23.3594 12.5 23.3594C13.1904 23.3594 13.75 22.7998 13.75 22.1094V3.98438C13.75 2.94884 12.9105 2.10938 11.875 2.10938H3.125C2.08947 2.10938 1.25 2.94884 1.25 3.98438V23.9844C1.25 25.02 2.08947 25.8594 3.125 25.8594H7.14989L7.0644 25.7633ZM5 3.98442C5 4.3296 5.27982 4.60942 5.625 4.60942H9.375C9.72018 4.60942 10 4.3296 10 3.98442C10 3.63924 9.72018 3.35942 9.375 3.35942H5.625C5.27982 3.35942 5 3.63924 5 3.98442Z" fill="#1BB4A4"/>
</g>
<defs>
<clipPath id="clip0_20_271">
<rect width="20" height="30" fill="white" transform="translate(0 0.859375)"/>
</clipPath>
</defs>
</svg>
