<svg width="78" height="12" viewBox="0 0 78 12" fill="none" xmlns="http://www.w3.org/2000/svg">
<g clip-path="url(#clip0_24_426)">
<path fill-rule="evenodd" clip-rule="evenodd" d="M7.23435 0.953476L7.22745 0.949631C7.16554 0.914719 7.10363 0.879746 7.04222 0.844834C6.78259 0.70018 6.47904 0.655258 6.18746 0.710129C4.46597 1.05437 2.50832 1.66802 1.25714 2.95507C0.599094 3.63353 0.140762 4.49657 0.0274268 5.54424C-0.0839111 6.57189 0.145755 7.68438 0.679478 8.87169H0.679977C1.0784 9.75969 1.63958 10.4281 2.3845 10.8272C3.11893 11.2263 3.8908 11.2862 4.57331 11.2263C5.24333 11.1665 5.91036 10.9819 6.48303 10.8123C6.56512 10.7875 6.64487 10.7627 6.72264 10.7386C6.80144 10.7141 6.87822 10.6902 6.95335 10.6676C7.36125 10.5429 7.72023 10.4331 8.07971 10.3484C9.54208 10.0141 10.4867 8.9016 10.9296 7.7592C11.3644 6.63677 11.4094 5.24987 10.8027 4.13243L10.7992 4.12743C9.86181 2.41936 8.51096 1.6657 7.23435 0.953476ZM6.23179 3.2545C4.79588 3.57878 3.67202 4.05272 3.04893 4.69622C2.73888 5.01555 2.55714 5.36974 2.50921 5.81371C2.45879 6.27764 2.54616 6.93615 2.95656 7.84911L6.23179 3.2545ZM6.23202 3.25542C7.39183 3.90892 8.07883 4.3629 8.61006 5.32573C8.7888 5.65496 8.83673 6.25365 8.60157 6.86223C8.3734 7.45092 7.97348 7.81511 7.52464 7.91985H7.52064C7.06431 8.02465 6.57951 8.1743 6.14764 8.30895L6.01128 8.35027C5.92683 8.37596 5.84481 8.40087 5.7662 8.42369C5.20951 8.58837 4.75217 8.70806 4.35575 8.74297C3.97181 8.77294 3.73515 8.72301 3.56989 8.63323C3.41562 8.54845 3.18645 8.36388 2.95679 7.85002L6.23202 3.25542Z" fill="#1BB4A4"/>
<path fill-rule="evenodd" clip-rule="evenodd" d="M23.9472 0.953476L23.9403 0.949631L23.8985 0.92601C23.8506 0.898972 23.8027 0.871872 23.7551 0.844834C23.4955 0.70018 23.1919 0.655258 22.9004 0.710129C21.1789 1.05437 19.2212 1.66802 17.97 2.95507C17.312 3.63353 16.8537 4.49657 16.7403 5.54424C16.629 6.57189 16.8586 7.68438 17.3924 8.87169H17.3929C17.7913 9.75969 18.3525 10.4281 19.0974 10.8272C19.8318 11.2263 20.6037 11.2862 21.2862 11.2263C21.9562 11.1665 22.6233 10.9819 23.1959 10.8123C23.278 10.7875 23.3578 10.7627 23.4355 10.7386C23.5143 10.7141 23.5911 10.6902 23.6662 10.6676C24.0741 10.5429 24.4331 10.4331 24.7926 10.3484C26.255 10.0141 27.1996 8.9016 27.6424 7.7592C28.0773 6.63677 28.1223 5.24987 27.5156 4.13243L27.5121 4.12743C26.5747 2.41936 25.2238 1.6657 23.9472 0.953476ZM22.9447 3.2545C21.5088 3.57878 20.3849 4.05272 19.7618 4.69622C19.4518 5.01555 19.27 5.36974 19.2221 5.81371C19.1717 6.27764 19.259 6.93615 19.6695 7.84911L19.6694 7.85002C19.8991 8.36388 20.1283 8.54845 20.2825 8.63323C20.4478 8.72301 20.6845 8.77294 21.0684 8.74297C21.4648 8.70806 21.9222 8.58837 22.4788 8.42369C22.5575 8.40087 22.6395 8.37596 22.7239 8.35027L22.8603 8.30895C23.2922 8.1743 23.777 8.02465 24.2333 7.91985H24.2373C24.6861 7.81511 25.086 7.45092 25.3142 6.86223C25.5494 6.25365 25.5014 5.65496 25.3227 5.32573C24.7915 4.3629 24.1045 3.90892 22.9447 3.25542V3.2545Z" fill="#1BB4A4"/>
<path fill-rule="evenodd" clip-rule="evenodd" d="M40.6592 0.953476L40.6523 0.949631C40.5903 0.914719 40.5284 0.879746 40.467 0.844834C40.2074 0.70018 39.9038 0.655258 39.6123 0.710129C37.8908 1.05437 35.9331 1.66802 34.6819 2.95507C34.0239 3.63353 33.5656 4.49657 33.4522 5.54424C33.3409 6.57189 33.5706 7.68438 34.1043 8.87169H34.1048C34.5032 9.75969 35.0644 10.4281 35.8093 10.8272C36.5437 11.2263 37.3156 11.2862 37.9981 11.2263C38.6681 11.1665 39.3352 10.9819 39.9078 10.8123C39.9899 10.7875 40.0697 10.7627 40.1474 10.7386C40.2262 10.7141 40.303 10.6902 40.3782 10.6676C40.7861 10.5429 41.145 10.4331 41.5045 10.3484C42.9669 10.0141 43.9115 8.9016 44.3544 7.7592C44.7892 6.63677 44.8342 5.24987 44.2275 4.13243L44.2241 4.12743C43.2866 2.41936 41.9358 1.6657 40.6592 0.953476ZM39.6566 3.2545C38.2207 3.57878 37.0968 4.05272 36.4737 4.69622C36.1637 5.01555 35.9819 5.36974 35.934 5.81371C35.8836 6.27764 35.971 6.93615 36.3814 7.84911L36.3813 7.85002C36.611 8.36388 36.8402 8.54845 36.9945 8.63323C37.1597 8.72301 37.3964 8.77294 37.7803 8.74297C38.1767 8.70806 38.6341 8.58837 39.1908 8.42369C39.2694 8.40087 39.3514 8.37596 39.4358 8.35027L39.5722 8.30895C40.0041 8.1743 40.4889 8.02465 40.9452 7.91985H40.9492C41.398 7.81511 41.798 7.45092 42.0261 6.86223C42.2613 6.25365 42.2134 5.65496 42.0346 5.32573C41.5034 4.3629 40.8164 3.90892 39.6566 3.25542V3.2545Z" fill="#1BB4A4"/>
<path fill-rule="evenodd" clip-rule="evenodd" d="M57.3711 0.953476L57.3642 0.949631C57.3023 0.914719 57.2403 0.879746 57.1789 0.844834C56.9193 0.70018 56.6158 0.655258 56.3242 0.710129C54.6027 1.05437 52.645 1.66802 51.3939 2.95507C50.7358 3.63353 50.2775 4.49657 50.1641 5.54424C50.0528 6.57189 50.2825 7.68438 50.8162 8.87169H50.8167C51.2151 9.75969 51.7763 10.4281 52.5212 10.8272C53.2556 11.2263 54.0275 11.2862 54.71 11.2263C55.3801 11.1665 56.0471 10.9819 56.6197 10.8123C56.7018 10.7875 56.7816 10.7627 56.8594 10.7386C56.9382 10.7141 57.0149 10.6902 57.0901 10.6676C57.498 10.5429 57.8569 10.4331 58.2164 10.3484C59.6788 10.0141 60.6234 8.9016 61.0663 7.7592C61.5011 6.63677 61.5461 5.24987 60.9395 4.13243L60.936 4.12743C59.9985 2.41936 58.6477 1.6657 57.3711 0.953476ZM56.3685 3.2545C54.9326 3.57878 53.8087 4.05272 53.1856 4.69622C52.8756 5.01555 52.6939 5.36974 52.6459 5.81371C52.5955 6.27764 52.6829 6.93615 53.0933 7.84911V7.85002C53.3229 8.36388 53.5521 8.54845 53.7064 8.63323C53.8716 8.72301 54.1083 8.77294 54.4922 8.74297C54.8886 8.70806 55.346 8.58837 55.9027 8.42369C55.9813 8.40087 56.0633 8.37596 56.1478 8.35027L56.2841 8.30895C56.716 8.1743 57.2008 8.02465 57.6571 7.91985H57.6611C58.11 7.81511 58.5099 7.45092 58.738 6.86223C58.9732 6.25365 58.9253 5.65496 58.7465 5.32573C58.2153 4.3629 57.5283 3.90892 56.3685 3.25542V3.2545Z" fill="#1BB4A4"/>
<path fill-rule="evenodd" clip-rule="evenodd" d="M73.9472 0.953476L73.9403 0.949631C73.8784 0.914719 73.8165 0.879746 73.7551 0.844834C73.4955 0.70018 73.1919 0.655258 72.9004 0.710129C71.1789 1.05437 69.2212 1.66802 67.97 2.95507C67.312 3.63353 66.8537 4.49657 66.7403 5.54424C66.629 6.57189 66.8586 7.68438 67.3924 8.87169H67.3929C67.7913 9.75969 68.3525 10.4281 69.0974 10.8272C69.8318 11.2263 70.6037 11.2862 71.2862 11.2263C71.9562 11.1665 72.6233 10.9819 73.1959 10.8123C73.278 10.7875 73.3578 10.7627 73.4355 10.7386C73.5143 10.7141 73.5911 10.6902 73.6662 10.6676C74.0741 10.5429 74.4331 10.4331 74.7926 10.3484C76.255 10.0141 77.1996 8.9016 77.6424 7.7592C78.0773 6.63677 78.1223 5.24987 77.5156 4.13243L77.5121 4.12743C76.5747 2.41936 75.2238 1.6657 73.9472 0.953476ZM72.9447 3.2545C71.5088 3.57878 70.3849 4.05272 69.7618 4.69622C69.4518 5.01555 69.27 5.36974 69.2221 5.81371C69.1717 6.27764 69.259 6.93615 69.6695 7.84911L69.6694 7.85002C69.8991 8.36388 70.1283 8.54845 70.2825 8.63323C70.4478 8.72301 70.6845 8.77294 71.0684 8.74297C71.4648 8.70806 71.9222 8.58837 72.4788 8.42369C72.5575 8.40087 72.6395 8.37596 72.7239 8.35027L72.8603 8.30895C73.2922 8.1743 73.777 8.02465 74.2333 7.91985H74.2373C74.6861 7.81511 75.086 7.45092 75.3142 6.86223C75.5494 6.25365 75.5014 5.65496 75.3227 5.32573C74.7915 4.3629 74.1045 3.90892 72.9447 3.25542V3.2545Z" fill="#1BB4A4"/>
</g>
<defs>
<clipPath id="clip0_24_426">
<rect width="78" height="11" fill="white" transform="translate(0 0.6875)"/>
</clipPath>
</defs>
</svg>
