<svg width="32" height="33" viewBox="0 0 32 33" fill="none" xmlns="http://www.w3.org/2000/svg">
<path d="M10.4914 15.9248L5.08448 18.708C4.41844 19.0509 3.99983 19.7372 3.99983 20.4863V21.5264C3.99983 22.631 4.89527 23.5264 5.99992 23.5264C6.36811 23.5264 6.66659 23.8249 6.66659 24.1931C6.66659 24.5612 6.36811 24.8597 5.99992 24.8597C4.1589 24.8597 2.6665 23.3674 2.6665 21.5264V20.4863C2.6665 19.2378 3.36418 18.094 4.47425 17.5225L8.95124 15.218C7.52232 13.9721 6.6665 12.1561 6.6665 10.193C6.6665 6.51114 9.65126 3.52637 13.3331 3.52637C15.5686 3.52637 17.6174 4.63564 18.8504 6.44977C19.0574 6.75429 18.9783 7.16892 18.6738 7.37589C18.3692 7.58285 17.9546 7.50377 17.7476 7.19926C16.7603 5.74657 15.1223 4.85971 13.3331 4.85971C10.3876 4.85971 7.99983 7.24752 7.99983 10.193C7.99983 12.0753 8.98224 13.7873 10.5601 14.7498C10.8745 14.9416 10.9738 15.3518 10.7821 15.6662C10.7103 15.7838 10.6079 15.8714 10.4914 15.9248Z" fill="#1BB4A4"/>
<path d="M15.9486 21.6152L10.5059 24.0891C9.79191 24.4136 9.3335 25.1255 9.3335 25.9098V26.8594C9.3335 27.9639 10.229 28.8594 11.3335 28.8594H26.0002C27.1048 28.8594 28.0002 27.9639 28.0002 26.8594V25.9098C28.0002 25.1255 27.5418 24.4136 26.8278 24.0891L21.3852 21.6152C20.555 21.9863 19.635 22.1927 18.6669 22.1927C17.6987 22.1927 16.7787 21.9863 15.9486 21.6152Z" fill="#1BB4A4"/>
<path d="M18.6669 20.8591C21.6124 20.8591 24.0002 18.4713 24.0002 15.5257C24.0002 12.5802 21.6124 10.1924 18.6669 10.1924C15.7214 10.1924 13.3335 12.5802 13.3335 15.5257C13.3335 18.4713 15.7214 20.8591 18.6669 20.8591Z" fill="#1BB4A4"/>
</svg>
