<svg width="201" height="62" viewBox="0 0 201 62" fill="none" xmlns="http://www.w3.org/2000/svg">
<g clip-path="url(#clip0_3_987)">
<g clip-path="url(#clip1_3_987)">
<g clip-path="url(#clip2_3_987)">
<g clip-path="url(#clip3_3_987)">
<g clip-path="url(#clip4_3_987)">
<g clip-path="url(#clip5_3_987)">
<path d="M89.0712 38.9681H83.09V22.9627H89.0712C90.6354 22.9627 92.021 23.2782 93.228 23.9093C94.4381 24.5434 95.3865 25.4565 96.0731 26.6485C96.7628 27.8405 97.1077 29.2795 97.1077 30.9654C97.1077 32.6482 96.7628 34.0872 96.0731 35.2822C95.3865 36.4743 94.4381 37.3858 93.228 38.0169C92.021 38.651 90.6354 38.9681 89.0712 38.9681ZM85.2838 24.9291V37.0017H89.0712C90.3028 37.0017 91.3359 36.7486 92.1703 36.2426C93.0078 35.7334 93.6391 35.0262 94.064 34.1207C94.492 33.2122 94.706 32.1604 94.706 30.9654C94.706 29.7673 94.492 28.7155 94.064 27.81C93.6391 26.9015 93.0078 26.1942 92.1703 25.6882C91.3359 25.1821 90.3028 24.9291 89.0712 24.9291H85.2838ZM108.331 32.6802V34.6466H101.403V32.6802H108.331ZM109.509 38.9681L104.544 25.0891H105.19L100.225 38.9681H97.916L103.712 22.9627H106.022L111.818 38.9681H109.509ZM122.557 32.6802V34.6466H115.629V32.6802H122.557ZM123.734 38.9681L118.769 25.0891H119.416L114.446 38.9681H112.137L117.938 22.9627H120.247L126.044 38.9681H123.734ZM134.999 39.2882C133.429 39.2882 132.031 38.9467 130.806 38.2638C129.577 37.5809 128.61 36.6176 127.905 35.3737C127.2 34.1268 126.847 32.6574 126.847 30.9654C126.847 29.2734 127.205 27.8039 127.919 26.557C128.63 25.3101 129.608 24.3468 130.852 23.6669C132.093 22.984 133.506 22.6426 135.092 22.6426C135.917 22.6426 136.702 22.7295 137.447 22.9032C138.196 23.0801 138.85 23.3057 139.41 23.58L139.179 25.5921C138.604 25.3178 137.969 25.0845 137.276 24.8925C136.584 24.7035 135.848 24.609 135.069 24.609C133.8 24.609 132.735 24.8925 131.873 25.4595C131.01 26.0266 130.358 26.7903 129.914 27.7506C129.471 28.7109 129.249 29.7825 129.249 30.9654C129.249 32.1452 129.468 33.2153 129.905 34.1756C130.339 35.1359 130.986 35.9011 131.845 36.4712C132.701 37.0383 133.76 37.3218 135.023 37.3218C135.823 37.3218 136.565 37.2364 137.249 37.0657C137.929 36.8919 138.573 36.6572 139.179 36.3615L139.41 38.3736C138.834 38.6327 138.185 38.8507 137.461 39.0275C136.738 39.2013 135.917 39.2882 134.999 39.2882ZM151.835 39.2882C151.163 39.2882 150.494 39.2394 149.825 39.1418C149.154 39.0412 148.534 38.9132 147.964 38.7577C147.394 38.5992 146.922 38.433 146.546 38.2592L146.846 35.9499C147.262 36.1481 147.764 36.3538 148.352 36.5672C148.94 36.7807 149.578 36.959 150.264 37.1023C150.948 37.2486 151.641 37.3218 152.343 37.3218C153.38 37.3218 154.206 37.1328 154.818 36.7547C155.431 36.3767 155.737 35.7883 155.737 34.9896C155.737 34.3859 155.583 33.8921 155.275 33.5079C154.968 33.1238 154.504 32.7946 153.885 32.5202C153.263 32.2458 152.487 31.9714 151.557 31.697C150.671 31.4379 149.855 31.1315 149.11 30.7779C148.361 30.4242 147.762 29.9471 147.313 29.3465C146.863 28.749 146.639 27.9548 146.639 26.964C146.639 26.1165 146.86 25.3681 147.304 24.7187C147.744 24.0663 148.394 23.5572 149.253 23.1913C150.112 22.8255 151.165 22.6426 152.412 22.6426C153.474 22.6426 154.45 22.7569 155.34 22.9856C156.227 23.2142 156.96 23.4657 157.539 23.7401L157.308 26.0494C156.43 25.5312 155.593 25.1608 154.795 24.9382C153.998 24.7187 153.172 24.609 152.32 24.609C151.371 24.609 150.588 24.7842 149.969 25.1348C149.35 25.4854 149.04 26.0571 149.04 26.8497C149.04 27.3832 149.179 27.8192 149.456 28.1576C149.733 28.496 150.144 28.7856 150.689 29.0264C151.237 29.2673 151.919 29.5096 152.735 29.7535C153.859 30.0889 154.824 30.4715 155.631 30.9013C156.441 31.3312 157.061 31.8617 157.492 32.4927C157.924 33.1208 158.139 33.8997 158.139 34.8295C158.139 35.5155 158.008 36.1328 157.746 36.6816C157.485 37.2303 157.092 37.6983 156.569 38.0855C156.045 38.4757 155.389 38.7745 154.601 38.9818C153.81 39.186 152.888 39.2882 151.835 39.2882ZM169.432 32.6802V34.6466H162.504V32.6802H169.432ZM170.61 38.9681L165.644 25.0891H166.291L161.326 38.9681H159.017L164.813 22.9627H167.122L172.919 38.9681H170.61ZM183.653 32.6802V34.6466H176.725V32.6802H183.653ZM184.831 38.9681L179.865 25.0891H180.512L175.547 38.9681H173.238L179.034 22.9627H181.343L187.14 38.9681H184.831ZM195.246 38.9681H189.149V22.9627H194.253C195.7 22.9627 196.836 23.2843 197.661 23.9276C198.483 24.5708 198.894 25.5525 198.894 26.8726C198.894 27.7628 198.699 28.5478 198.308 29.2276C197.914 29.9075 197.324 30.3495 196.539 30.5538L196.862 30.188C197.986 30.3709 198.856 30.8145 199.472 31.5187C200.088 32.2229 200.396 33.1817 200.396 34.3951C200.396 35.7975 199.94 36.9102 199.028 37.7334C198.117 38.5565 196.856 38.9681 195.246 38.9681ZM191.343 31.5827V37.0017H195.061C195.954 37.0017 196.667 36.7807 197.199 36.3386C197.729 35.8965 197.994 35.2258 197.994 34.3265C197.994 33.3204 197.723 32.6116 197.181 32.2001C196.639 31.7885 195.932 31.5827 195.061 31.5827H191.343ZM191.343 24.9062V29.6163H193.976C194.761 29.6163 195.4 29.4593 195.892 29.1453C196.385 28.8344 196.631 28.2063 196.631 27.2613C196.631 26.3223 196.385 25.6958 195.892 25.3818C195.4 25.0647 194.761 24.9062 193.976 24.9062H191.343Z" fill="#BCDD33"/>
</g>
</g>
</g>
</g>
<g clip-path="url(#clip6_3_987)">
<g clip-path="url(#clip7_3_987)">
<g clip-path="url(#clip8_3_987)">
<g clip-path="url(#clip9_3_987)">
<path d="M49.8015 19.269C51.392 21.0626 52.3361 23.5355 52.1037 25.2779C51.9672 26.2934 51.6388 27.3564 51.1666 28.4413H40.8622L37.7041 36.3789L34.9002 23.4369L34.76 22.794L32.9596 23.1155L29.3404 29.4166L23.0242 29.3837C22.3302 27.981 21.8621 26.6003 21.7182 25.2998C21.4964 23.2762 22.4708 20.6133 24.0904 18.8307C24.939 17.8919 26.3557 16.7705 28.2741 16.7705C30.7571 16.7705 33.4651 18.6663 36.1066 22.2534L36.8814 23.3054L37.6156 22.2278C40.01 18.7211 42.5962 16.8691 45.0865 16.8691C46.7578 16.8691 48.4291 17.7202 49.8015 19.269Z" fill="#BCDD33"/>
<path d="M42.2347 30.2677H50.2516C46.6508 36.6711 39.0581 43.3411 36.9073 45.1602C34.8707 43.4653 28.0049 37.5222 24.2233 31.5133L30.2701 31.4877L33.5426 25.8003L36.6785 40.2947L37.0659 42.4316L42.2347 30.2677Z" fill="#BCDD33"/>
</g>
</g>
<path d="M11.8013 22.6491L11.1992 24.3662L6.51844 22.7572L7.12056 21.0401C7.27687 20.594 7.50912 20.2296 7.817 19.9474C8.1228 19.6643 8.48466 19.4837 8.90199 19.4055C9.3211 19.3283 9.77699 19.3741 10.2694 19.5436C10.762 19.7127 11.1476 19.9562 11.4261 20.2736C11.7049 20.5908 11.8767 20.9547 11.9416 21.3652C12.0045 21.7752 11.9577 22.2031 11.8013 22.6491ZM7.31543 22.3255L10.8439 23.5384L11.225 22.4512C11.3484 22.0991 11.379 21.7784 11.3164 21.4888C11.252 21.1987 11.1082 20.9467 10.8848 20.7329C10.6633 20.5197 10.3776 20.3529 10.0279 20.2325C9.67792 20.1124 9.34839 20.0678 9.03932 20.0986C8.73203 20.13 8.46242 20.2399 8.23017 20.4278C7.99793 20.6161 7.82026 20.8862 7.69657 21.2383L7.31543 22.3255ZM15.3067 12.9318L15.7818 13.3101L14.4521 14.9482L13.9767 14.5696L15.3067 12.9318ZM17.0516 13.8601L12.7493 12.3691L12.8742 12.2156L15.2696 16.055L14.825 16.6027L12.0772 12.1565L12.52 11.6115L17.4942 13.3151L17.0516 13.8601ZM22.2971 7.1597L22.6285 7.66657L20.8464 8.80837L20.5151 8.3012L22.2971 7.1597ZM23.6595 8.58371L20.0477 5.83054L20.215 5.72335L21.2712 10.1135L20.6756 10.4949L19.4773 5.41969L20.0705 5.03968L24.2527 8.2037L23.6595 8.58371ZM30.7674 5.92157C30.3032 6.04638 29.8616 6.05666 29.4431 5.95241C29.0242 5.84786 28.6603 5.63906 28.3512 5.32571C28.0407 5.01471 27.817 4.60915 27.6797 4.10903C27.5427 3.60891 27.5293 3.14578 27.64 2.71967C27.7485 2.29384 27.9585 1.93086 28.2703 1.63014C28.5847 1.33089 28.9759 1.11827 29.4439 0.992579C29.6869 0.92709 29.9259 0.890675 30.1617 0.883333C30.3975 0.875697 30.609 0.890087 30.7962 0.926503L30.8923 1.53881C30.6992 1.50386 30.4928 1.48507 30.273 1.48213C30.0517 1.48184 29.8263 1.51238 29.5973 1.57405C29.2203 1.67537 28.9275 1.84393 28.719 2.07946C28.5108 2.31733 28.3806 2.59485 28.3278 2.91261C28.2738 3.23271 28.2949 3.56779 28.3907 3.91785C28.4862 4.26614 28.6372 4.5654 28.8433 4.8156C29.0515 5.06523 29.3048 5.23967 29.6032 5.33922C29.9037 5.43819 30.2403 5.43731 30.6135 5.33717C30.8505 5.27344 31.0631 5.18945 31.2515 5.0852C31.4377 4.98124 31.6092 4.86083 31.7655 4.72398L31.9957 5.30016C31.8456 5.42321 31.6712 5.53921 31.4716 5.64846C31.2722 5.758 31.0373 5.84904 30.7674 5.92157ZM44.2269 6.22758C44.0291 6.17296 43.8351 6.10424 43.6453 6.02113C43.456 5.93596 43.2846 5.84757 43.1307 5.75565C42.9749 5.66314 42.8489 5.57563 42.7531 5.4934L43.031 4.83763C43.1369 4.92896 43.2683 5.02999 43.4252 5.14158C43.5818 5.25288 43.7553 5.35743 43.9452 5.45493C44.135 5.55272 44.3337 5.63025 44.5413 5.68722C44.8477 5.77151 45.1067 5.78267 45.3185 5.7207C45.5299 5.65903 45.6687 5.51014 45.7352 5.27373C45.7847 5.09724 45.78 4.93865 45.7212 4.79828C45.6637 4.66055 45.5543 4.52604 45.3926 4.39477C45.2327 4.26379 45.0266 4.12019 44.7736 3.96395C44.5333 3.81506 44.3186 3.65795 44.1291 3.49202C43.9368 3.32757 43.7986 3.13844 43.7144 2.92494C43.6319 2.71203 43.6319 2.45977 43.7138 2.16786C43.7841 1.91618 43.9113 1.71237 44.0952 1.55614C44.2809 1.4002 44.5149 1.30328 44.7973 1.26511C45.0815 1.22722 45.4077 1.25894 45.7764 1.36026C46.0905 1.4466 46.3693 1.55937 46.6123 1.69857C46.8552 1.83777 47.0506 1.97139 47.1987 2.09884L46.9406 2.76313C46.7235 2.53818 46.507 2.3605 46.2907 2.2307C46.0742 2.1009 45.839 2.00105 45.5848 1.93145C45.3057 1.85451 45.0604 1.84305 44.8489 1.8965C44.6374 1.95024 44.4989 2.09414 44.4334 2.32849C44.3892 2.4859 44.3936 2.62569 44.4473 2.74786C44.5007 2.87032 44.598 2.98896 44.7389 3.10438C44.8801 3.2195 45.0616 3.34695 45.2835 3.48674C45.5878 3.67586 45.8414 3.86646 46.0446 4.05881C46.2474 4.25117 46.3859 4.45791 46.4598 4.67875C46.5354 4.90018 46.5349 5.14834 46.458 5.42292C46.4014 5.62438 46.3115 5.79618 46.1881 5.93802C46.0653 6.0781 45.9111 6.1847 45.7257 6.25783C45.5379 6.33037 45.3196 6.36443 45.0702 6.36003C44.8201 6.35738 44.539 6.31333 44.2269 6.22758ZM53.8629 8.68855L53.5215 9.18868L51.7626 8.01193L52.1043 7.51152L53.8629 8.68855ZM53.0724 10.487L54.2176 6.11863L54.3828 6.22905L50.7158 8.90998L50.128 8.51646L54.3763 5.4379L54.9615 5.82965L53.6579 10.8788L53.0724 10.487ZM60.2503 15.1094L59.7675 15.4783L58.471 13.814L58.9539 13.4452L60.2503 15.1094ZM58.9295 16.571L61.4024 12.78L61.524 12.9362L57.1923 14.3412L56.759 13.7846L61.7687 12.183L62.2002 12.7368L59.3608 17.1249L58.9295 16.571ZM62.2172 23.0879L61.5723 21.3511L66.2229 19.6584L66.7627 21.1118C66.916 21.5253 66.9427 21.883 66.8425 22.1849C66.7431 22.4885 66.5014 22.7102 66.1179 22.85C65.8589 22.944 65.6095 22.9713 65.3695 22.9311C65.1313 22.8905 64.9403 22.769 64.7965 22.5663L64.9385 22.6198C65.0047 22.959 64.967 23.2538 64.8264 23.5046C64.6876 23.7548 64.4426 23.9437 64.0911 24.0717C63.683 24.2203 63.3119 24.2077 62.9771 24.0344C62.6407 23.8617 62.3874 23.5463 62.2172 23.0879ZM63.9499 21.1961L62.377 21.7684L62.77 22.8262C62.8644 23.0806 63.0041 23.2603 63.1885 23.3651C63.3716 23.4705 63.5943 23.4752 63.8568 23.3798C64.1478 23.2738 64.3252 23.1223 64.3892 22.9249C64.4506 22.7264 64.4352 22.5026 64.3427 22.2539L63.9499 21.1961ZM65.8886 20.4904L64.5224 20.9875L64.8006 21.7367C64.884 21.9614 64.997 22.127 65.1399 22.2345C65.2826 22.3417 65.4908 22.3455 65.7649 22.2456C66.0369 22.1467 66.1932 22.0101 66.2338 21.8363C66.2724 21.663 66.2498 21.4642 66.1665 21.2395L65.8886 20.4904ZM8.51225 41.8345L7.89678 40.0871L12.6663 38.4396L13.282 40.1867C13.4431 40.6442 13.4914 41.0812 13.4274 41.4979C13.3639 41.9167 13.1898 42.2882 12.9053 42.6124C12.6209 42.9366 12.227 43.1856 11.7233 43.3595C11.2215 43.5328 10.7573 43.5803 10.3311 43.5016C9.90483 43.4229 9.53496 43.2394 9.22233 42.9507C8.91 42.6638 8.6736 42.2917 8.51225 41.8345ZM12.3047 39.283L8.70979 40.525L9.09953 41.6315C9.22619 41.991 9.40771 42.267 9.64411 42.4597C9.8805 42.6526 10.1564 42.7639 10.4719 42.7945C10.7858 42.8253 11.12 42.7795 11.4757 42.6567C11.8328 42.5334 12.1246 42.3628 12.3507 42.1455C12.5788 41.9273 12.7247 41.67 12.7888 41.3734C12.8525 41.0771 12.8214 40.749 12.6947 40.3896L12.3047 39.283ZM15.6923 50.1592L15.2106 50.5439L13.8512 48.8755L14.3329 48.4908L15.6923 50.1592ZM14.3798 51.6763L16.8149 47.7564L16.9422 47.9123L12.5577 49.4403L12.1045 48.8844L17.1735 47.1396L17.6267 47.6959L14.833 52.2322L14.3798 51.6763ZM22.592 55.8194L22.2565 56.3345L20.4371 55.1731L20.7723 54.658L22.592 55.8194ZM21.8267 57.6678L22.8963 53.1896L23.0663 53.298L19.388 56.1113L18.7814 55.724L23.041 52.4924L23.6476 52.8795L22.4333 58.0552L21.8267 57.6678ZM29.8509 60.9282C29.3766 60.8013 28.9818 60.5863 28.6662 60.283C28.3533 59.9784 28.1421 59.6093 28.0333 59.1755C27.922 58.7429 27.9357 58.2719 28.0748 57.7621C28.2145 57.2502 28.4435 56.8355 28.7614 56.5181C29.0782 56.1983 29.4522 55.9854 29.8832 55.8799C30.3142 55.7763 30.7683 55.7883 31.2464 55.9163C31.4953 55.9827 31.7252 56.0723 31.9363 56.1845C32.1472 56.2987 32.3258 56.4197 32.4723 56.5477L32.2368 57.1351C32.0864 57.0059 31.9144 56.8846 31.7201 56.7706C31.5279 56.6573 31.3144 56.5692 31.0791 56.5063C30.6962 56.4038 30.3513 56.4035 30.0443 56.5052C29.7373 56.6068 29.4769 56.7847 29.2636 57.0396C29.0527 57.2928 28.8985 57.5982 28.8006 57.9562C28.7036 58.3121 28.6808 58.6519 28.7321 58.9752C28.7852 59.3012 28.9175 59.5843 29.1292 59.8245C29.3407 60.065 29.637 60.2363 30.0182 60.3382C30.2608 60.4031 30.4916 60.4368 30.7099 60.4395C30.93 60.4427 31.1435 60.4242 31.3502 60.3846L31.2547 61.0095C31.0608 61.0403 30.8466 61.053 30.6123 61.0483C30.3806 61.0421 30.1267 61.0019 29.8509 60.9282ZM45.1874 60.6122C44.9857 60.6674 44.7798 60.7082 44.5701 60.7346C44.3595 60.759 44.1626 60.7716 43.979 60.7722C43.793 60.7716 43.6364 60.7605 43.5094 60.7396L43.4056 60.0204C43.5465 60.046 43.715 60.0659 43.9113 60.0806C44.1059 60.0976 44.3132 60.0988 44.5324 60.0841C44.7505 60.0721 44.9652 60.0371 45.1767 59.9793C45.489 59.8938 45.7215 59.769 45.8743 59.6054C46.0271 59.4416 46.0695 59.2387 46.0018 58.9967C45.9514 58.8161 45.8633 58.6798 45.7376 58.5882C45.6142 58.498 45.4469 58.4372 45.2357 58.4061C45.0263 58.3744 44.7703 58.3556 44.4681 58.3494C44.1783 58.3438 43.906 58.3192 43.6515 58.2751C43.3964 58.2293 43.1758 58.1344 42.9895 57.9911C42.8038 57.8496 42.6691 57.629 42.5855 57.3295C42.5146 57.0758 42.5185 56.8317 42.5974 56.5974C42.6763 56.3648 42.8296 56.1583 43.0571 55.9783C43.2846 55.798 43.5866 55.6564 43.963 55.5534C44.283 55.4658 44.5864 55.4192 44.8729 55.413C45.1601 55.4089 45.4024 55.4241 45.5999 55.4591L45.7248 56.1754C45.4151 56.0908 45.1319 56.0482 44.875 56.0482C44.6155 56.047 44.3568 56.0814 44.0988 56.1522C43.8135 56.2303 43.5925 56.3475 43.4359 56.5043C43.279 56.6608 43.2339 56.8581 43.3006 57.0963C43.3454 57.2578 43.424 57.3779 43.5358 57.4569C43.6477 57.5359 43.7963 57.5894 43.9816 57.6173C44.167 57.6452 44.3918 57.6619 44.6567 57.6681C45.0242 57.6751 45.3475 57.7107 45.6263 57.775C45.9069 57.8367 46.1386 57.945 46.3216 58.0995C46.5046 58.2543 46.6351 58.4707 46.7128 58.7494C46.7709 58.9567 46.7831 59.1541 46.7496 59.3409C46.7164 59.5279 46.6375 59.7015 46.5129 59.8615C46.3883 60.0219 46.2154 60.1655 45.9941 60.2921C45.7743 60.4183 45.5056 60.5249 45.1874 60.6122ZM53.6131 54.2659L53.9593 54.7742L52.1642 55.9724L51.818 55.4641L53.6131 54.2659ZM55.0274 55.6908L51.2916 52.9529L51.4594 52.8407L52.6216 57.2966L52.023 57.696L50.7016 52.5462L51.2999 52.1468L55.6259 55.2914L55.0274 55.6908ZM59.8997 47.9443L60.3895 48.3193L59.0651 50.0147L58.5754 49.6397L59.8997 47.9443ZM61.6945 48.8573L57.2792 47.4189L57.4032 47.2606L59.919 51.1301L59.4777 51.6951L56.5902 47.2163L57.0318 46.6513L62.1359 48.2923L61.6945 48.8573ZM65.489 41.4495L64.8282 43.2188L60.0902 41.4844L60.643 40.0037C60.8003 39.5832 61.0189 39.288 61.2989 39.1186C61.5789 38.9491 61.9143 38.9359 62.305 39.0792C62.5695 39.1758 62.7804 39.318 62.9379 39.5051C63.0954 39.6924 63.1619 39.9112 63.1369 40.1614L63.064 40.0296C63.2411 39.7224 63.4668 39.5171 63.7414 39.4137C64.0173 39.3127 64.3347 39.328 64.6932 39.4592C65.1088 39.6114 65.3891 39.8639 65.5341 40.2166C65.6786 40.5711 65.6635 40.9822 65.489 41.4495ZM62.8795 41.7819L64.4824 42.3686L64.8857 41.2891C64.9827 41.0292 64.9946 40.799 64.9216 40.5981C64.8493 40.3952 64.6799 40.2451 64.4138 40.1476C64.1155 40.0384 63.8764 40.041 63.6961 40.1558C63.5148 40.2677 63.3769 40.4501 63.2826 40.7024L62.8795 41.7819ZM60.9029 41.0583L62.2961 41.5684L62.582 40.8028C62.6671 40.5749 62.6899 40.3729 62.6505 40.1969C62.6137 40.0199 62.4547 39.8798 62.1733 39.7767C61.8956 39.6751 61.6839 39.6792 61.5376 39.7893C61.3902 39.8968 61.2739 40.0648 61.1885 40.2927L60.9029 41.0583ZM6.49976 31.6514C6.49976 30.5962 7.36378 29.7407 8.42949 29.7407C9.49521 29.7407 10.3592 30.5962 10.3592 31.6514C10.3592 32.7065 9.49521 33.562 8.42949 33.562C7.36378 33.562 6.49976 32.7065 6.49976 31.6514ZM63.4665 31.6514C63.4665 30.5962 64.3302 29.7407 65.3959 29.7407C66.4619 29.7407 67.3257 30.5962 67.3257 31.6514C67.3257 32.7065 66.4619 33.562 65.3959 33.562C64.3302 33.562 63.4665 32.7065 63.4665 31.6514Z" fill="#BCDD33"/>
</g>
</g>
</g>
</g>
<defs>
<clipPath id="clip0_3_987">
<rect width="199.738" height="60.2237" fill="white" transform="translate(0.662476 0.853516)"/>
</clipPath>
<clipPath id="clip1_3_987">
<rect width="199.738" height="60.2237" fill="white" transform="translate(0.662476 0.853516)"/>
</clipPath>
<clipPath id="clip2_3_987">
<rect width="117.315" height="16.6456" fill="white" transform="translate(83.0853 22.6426)"/>
</clipPath>
<clipPath id="clip3_3_987">
<rect width="117.315" height="16.6456" fill="white" transform="translate(83.0853 22.6426)"/>
</clipPath>
<clipPath id="clip4_3_987">
<rect width="117.315" height="16.6456" fill="white" transform="translate(83.0853 22.6426)"/>
</clipPath>
<clipPath id="clip5_3_987">
<rect width="117.315" height="16.6456" fill="white" transform="translate(83.0853 22.6426)"/>
</clipPath>
<clipPath id="clip6_3_987">
<rect width="72.5005" height="60.2237" fill="white" transform="translate(0.662476 0.853516)"/>
</clipPath>
<clipPath id="clip7_3_987">
<rect width="72.5005" height="60.2237" fill="white" transform="translate(0.662476 0.853516)"/>
</clipPath>
<clipPath id="clip8_3_987">
<rect width="30.4517" height="28.3897" fill="white" transform="translate(21.6869 16.7705)"/>
</clipPath>
<clipPath id="clip9_3_987">
<rect width="30.4517" height="28.3897" fill="white" transform="translate(21.6869 16.7705)"/>
</clipPath>
</defs>
</svg>
