<svg width="14" height="13" viewBox="0 0 14 13" fill="none" xmlns="http://www.w3.org/2000/svg">
<path d="M6.4117 1.16176L7.62251 0.162363C8.25034 1.18739 8.85895 2.07147 9.44834 2.81461C10.0377 3.57057 10.6463 4.24324 11.2742 4.83263C11.902 5.42202 12.5747 5.97297 13.2922 6.48548V6.6008C12.5747 7.12612 11.902 7.67707 11.2742 8.25365C10.6463 8.84304 10.0377 9.51571 9.44834 10.2717C8.85895 11.0276 8.25034 11.9117 7.62251 12.9239L6.4117 11.9245C6.93703 11.1173 7.46235 10.387 7.98768 9.73352C8.52581 9.09289 9.05754 8.52912 9.58287 8.04224C10.1082 7.55535 10.6207 7.15815 11.1204 6.85065C11.6201 6.54314 12.1006 6.33173 12.5618 6.21641V6.86986C12.1006 6.75455 11.6201 6.54314 11.1204 6.23563C10.6207 5.92812 10.1082 5.53093 9.58287 5.04404C9.05754 4.55715 8.52581 3.98698 7.98768 3.33353C7.46235 2.69289 6.93703 1.96897 6.4117 1.16176ZM0.492188 5.77437H7.315C8.12221 5.77437 8.82691 5.79359 9.42912 5.83203C10.0441 5.87047 10.5887 5.91531 11.0627 5.96656L12.2159 6.54314L11.0627 7.11971C10.5887 7.17097 10.0441 7.21581 9.42912 7.25425C8.82691 7.29269 8.12221 7.31191 7.315 7.31191H0.492188V5.77437Z" fill="#FDD506"/>
</svg>
