<svg width="26" height="20" viewBox="0 0 26 20" fill="none" xmlns="http://www.w3.org/2000/svg">
<g clip-path="url(#clip0_1_828)">
<path d="M24.9338 3.71866C24.793 3.16867 24.5169 2.66712 24.1331 2.26419C23.7494 1.86126 23.2715 1.57109 22.7471 1.42273C20.8173 0.878418 13.0811 0.878418 13.0811 0.878418C13.0811 0.878418 5.34505 0.878418 3.41517 1.41983C2.89065 1.56772 2.41247 1.85772 2.02864 2.26073C1.64482 2.66373 1.36887 3.16554 1.22851 3.71577C0.712219 5.74245 0.712219 9.96948 0.712219 9.96948C0.712219 9.96948 0.712219 14.1966 1.22851 16.2203C1.51289 17.3379 2.35221 18.2181 3.41517 18.5163C5.34505 19.0607 13.0811 19.0607 13.0811 19.0607C13.0811 19.0607 20.8173 19.0607 22.7471 18.5163C23.8129 18.2181 24.6495 17.3379 24.9338 16.2203C25.4501 14.1966 25.4501 9.96948 25.4501 9.96948C25.4501 9.96948 25.4501 5.74245 24.9338 3.71866ZM10.6239 13.8491V6.08987L17.0293 9.94053L10.6239 13.8491Z" fill="white"/>
</g>
<defs>
<clipPath id="clip0_1_828">
<rect width="25.5625" height="18.9657" fill="white" transform="translate(0.25 0.532715)"/>
</clipPath>
</defs>
</svg>
